<?xml version="1.0" standalone="no"?>
<!DOCTYPE svg PUBLIC "-//W3C//DTD SVG 20010904//EN"
 "http://www.w3.org/TR/2001/REC-SVG-20010904/DTD/svg10.dtd">
<svg version="1.0" xmlns="http://www.w3.org/2000/svg"
 width="874.000000pt" height="1322.000000pt" viewBox="0 0 874.000000 1322.000000"
 preserveAspectRatio="xMidYMid meet">

<g transform="translate(0.000000,1322.000000) scale(0.100000,-0.100000)"
fill="#000000" stroke="none">
<path d="M2982 12689 c-283 -34 -519 -222 -604 -484 -22 -66 -36 -88 -52 -82
-20 8 -144 -12 -205 -32 -117 -38 -243 -113 -311 -185 -77 -81 -100 -112 -146
-204 -64 -129 -85 -219 -85 -365 0 -106 4 -130 32 -220 41 -128 102 -230 194
-321 66 -67 85 -79 227 -148 10 -4 26 -8 37 -8 40 0 51 -11 51 -50 0 -22 5
-42 10 -45 6 -3 10 -15 10 -25 0 -34 31 -113 68 -175 68 -114 200 -229 327
-284 28 -12 59 -26 70 -31 31 -14 134 -32 144 -26 5 4 12 2 16 -4 3 -5 41 -10
83 -10 100 0 249 38 359 90 46 22 88 40 92 40 4 0 25 -15 47 -33 47 -40 131
-92 165 -102 13 -4 29 -11 34 -15 6 -4 52 -16 104 -26 89 -17 100 -17 190 -2
53 10 119 26 146 38 67 29 173 101 215 147 37 39 80 98 80 108 0 3 11 23 24
44 14 21 28 55 31 74 9 48 21 56 102 68 37 6 77 14 88 19 11 4 35 13 53 19 79
25 240 151 293 229 103 151 138 250 146 405 7 123 -8 193 -61 299 -54 108 -85
143 -215 246 -24 18 -24 20 -12 81 7 34 12 87 13 119 1 67 -22 202 -34 202 -4
0 -8 10 -8 23 0 58 -117 237 -205 315 -53 46 -174 122 -196 122 -8 0 -19 4
-24 9 -19 17 -145 41 -212 41 -116 -1 -252 -46 -333 -110 -37 -29 -60 -38 -60
-22 0 12 -81 94 -120 122 -49 34 -201 110 -222 110 -9 0 -19 4 -22 9 -3 5 -32
12 -63 16 -32 4 -66 9 -78 12 -34 9 -117 9 -183 2z m220 -134 c140 -34 255
-91 317 -158 13 -15 28 -24 34 -20 6 3 7 2 4 -4 -3 -5 4 -25 17 -44 13 -19 26
-44 30 -57 6 -19 51 -52 71 -52 3 0 39 31 80 69 41 38 85 73 97 77 13 4 25 10
28 14 3 3 28 14 57 23 107 35 275 13 381 -49 74 -43 193 -170 229 -244 53
-106 66 -157 67 -255 0 -65 -6 -114 -23 -177 -17 -63 -21 -91 -13 -100 6 -7
40 -28 77 -47 234 -120 310 -434 166 -691 -27 -49 -110 -160 -120 -160 -3 0
-21 -14 -40 -30 -71 -62 -219 -110 -344 -110 -57 0 -58 -1 -73 -35 -7 -19 -14
-44 -14 -57 0 -35 -75 -179 -117 -223 -47 -49 -108 -96 -148 -114 -207 -92
-394 -59 -562 100 -40 39 -70 59 -85 59 -14 0 -62 -20 -108 -45 -46 -25 -86
-45 -89 -45 -3 0 -18 -7 -33 -14 -35 -18 -180 -46 -240 -46 -76 0 -209 30
-273 62 -65 32 -160 100 -186 133 -9 11 -27 31 -39 45 -49 56 -92 169 -105
272 -7 61 -17 105 -27 114 -9 9 -42 17 -84 20 -112 9 -220 77 -307 193 -45 59
-87 138 -87 163 0 8 -4 18 -9 24 -18 19 -33 168 -26 253 24 291 215 507 518
586 67 17 133 20 142 5 3 -5 24 -10 45 -10 51 0 65 22 78 121 16 127 96 257
208 340 58 43 198 109 231 109 10 0 25 5 33 10 23 15 171 12 242 -5z m-497
-55 c3 -5 -1 -10 -9 -10 -9 0 -16 5 -16 10 0 6 4 10 9 10 6 0 13 -4 16 -10z
m1585 -80 c0 -5 -4 -10 -10 -10 -5 0 -10 5 -10 10 0 6 5 10 10 10 6 0 10 -4
10 -10z m110 -84 c0 -3 -4 -8 -10 -11 -5 -3 -10 -1 -10 4 0 6 5 11 10 11 6 0
10 -2 10 -4z m-2555 -516 c3 -5 1 -10 -4 -10 -6 0 -11 5 -11 10 0 6 2 10 4 10
3 0 8 -4 11 -10z m2985 -350 c0 -5 -2 -10 -4 -10 -3 0 -8 5 -11 10 -3 6 -1 10
4 10 6 0 11 -4 11 -10z m-640 -1200 c0 -5 -5 -10 -11 -10 -5 0 -7 5 -4 10 3 6
8 10 11 10 2 0 4 -4 4 -10z m-1770 -90 c0 -5 -7 -10 -16 -10 -8 0 -12 5 -9 10
3 6 10 10 16 10 5 0 9 -4 9 -10z m657 -66 c-3 -3 -12 -4 -19 -1 -8 3 -5 6 6 6
11 1 17 -2 13 -5z m-237 -74 c0 -5 -4 -10 -10 -10 -5 0 -10 5 -10 10 0 6 5 10
10 10 6 0 10 -4 10 -10z"/>
<path d="M3206 12030 c-32 -5 -64 -14 -70 -19 -6 -5 -22 -12 -36 -16 -73 -23
-203 -157 -216 -223 -4 -18 -11 -35 -15 -38 -5 -3 -9 -32 -9 -64 0 -71 25
-108 80 -116 53 -9 90 24 90 80 0 57 29 113 85 165 66 61 125 84 210 84 120
-1 227 -70 259 -168 32 -99 -14 -177 -176 -301 -150 -115 -209 -218 -202 -348
7 -111 98 -166 158 -95 22 26 26 40 26 96 0 59 3 70 34 112 19 26 63 69 98 96
188 148 241 231 242 385 1 81 -17 132 -75 216 -80 117 -290 184 -483 154z
m149 -50 c-3 -5 -12 -7 -20 -3 -21 7 -19 13 6 13 11 0 18 -4 14 -10z m-205
-10 c0 -5 -4 -10 -10 -10 -5 0 -10 5 -10 10 0 6 5 10 10 10 6 0 10 -4 10 -10z
m104 -55 c-4 -8 -11 -15 -16 -15 -6 0 -5 6 2 15 7 8 14 15 16 15 2 0 1 -7 -2
-15z m-304 -155 c0 -5 -4 -10 -10 -10 -5 0 -10 5 -10 10 0 6 5 10 10 10 6 0
10 -4 10 -10z m0 -50 c0 -5 -4 -10 -10 -10 -5 0 -10 5 -10 10 0 6 5 10 10 10
6 0 10 -4 10 -10z m760 -70 c0 -5 -4 -10 -9 -10 -6 0 -13 5 -16 10 -3 6 1 10
9 10 9 0 16 -4 16 -10z m-213 -196 c-3 -3 -12 -4 -19 -1 -8 3 -5 6 6 6 11 1
17 -2 13 -5z"/>
<path d="M3251 10747 c-48 -15 -91 -78 -91 -132 0 -83 83 -159 160 -145 50 9
86 33 111 73 39 62 13 163 -51 197 -28 14 -95 18 -129 7z m66 -253 c-3 -3 -12
-4 -19 -1 -8 3 -5 6 6 6 11 1 17 -2 13 -5z"/>
<path d="M2820 9738 c-102 -18 -185 -79 -231 -173 -29 -60 -31 -70 -26 -142 8
-127 59 -198 176 -250 48 -22 67 -24 141 -21 97 4 149 25 217 86 61 55 83 109
83 207 0 67 -4 88 -26 130 -33 63 -56 88 -115 125 -53 35 -146 51 -219 38z
m-20 -52 c0 -3 -4 -8 -10 -11 -5 -3 -10 -1 -10 4 0 6 5 11 10 11 6 0 10 -2 10
-4z m185 -126 c111 -107 37 -272 -124 -274 -46 -1 -62 4 -91 26 -45 34 -72
102 -60 150 15 59 22 78 29 78 3 0 18 11 32 23 35 34 46 37 116 34 56 -3 67
-7 98 -37z m172 -46 c-3 -3 -12 -4 -19 -1 -8 3 -5 6 6 6 11 1 17 -2 13 -5z
m-287 -334 c0 -5 -4 -10 -10 -10 -5 0 -10 5 -10 10 0 6 5 10 10 10 6 0 10 -4
10 -10z"/>
<path d="M3890 9070 c-119 -14 -225 -30 -260 -39 -19 -6 -80 -20 -135 -31 -55
-12 -109 -25 -120 -29 -11 -5 -47 -16 -80 -26 -115 -35 -371 -149 -490 -218
-259 -151 -506 -368 -701 -617 -69 -87 -183 -259 -227 -342 -20 -37 -41 -75
-46 -85 -6 -10 -20 -40 -31 -68 -24 -56 -47 -110 -60 -140 -5 -11 -19 -51 -30
-90 -12 -38 -26 -79 -30 -90 -5 -11 -16 -56 -25 -100 -10 -44 -22 -96 -27
-115 -26 -101 -41 -257 -42 -450 -1 -251 15 -386 74 -630 14 -58 69 -215 86
-249 8 -14 14 -30 14 -35 0 -9 90 -190 115 -234 6 -9 33 -50 60 -91 28 -41 55
-81 60 -90 6 -9 15 -20 21 -26 5 -5 23 -27 38 -48 77 -105 280 -286 463 -412
29 -20 29 -24 -5 -60 -43 -47 -119 -152 -135 -185 -4 -8 -21 -37 -37 -65 -29
-47 -81 -151 -155 -310 -34 -72 -95 -246 -114 -325 -57 -235 -54 -410 11 -580
41 -110 155 -248 241 -295 20 -11 38 -24 40 -30 2 -5 0 -48 -4 -95 -4 -47 -8
-149 -8 -226 -1 -101 -5 -144 -13 -151 -7 -5 -47 -16 -88 -23 -41 -7 -81 -16
-90 -21 -8 -4 -50 -24 -93 -43 -368 -167 -566 -539 -502 -942 28 -180 85 -323
185 -468 60 -87 201 -226 281 -278 14 -9 33 -23 41 -30 18 -16 46 -35 78 -50
14 -7 27 -15 30 -18 5 -5 149 -72 195 -91 52 -22 202 -66 270 -80 320 -66 650
-55 1000 35 72 18 266 82 315 103 161 70 286 134 413 212 57 35 71 40 84 29
20 -16 54 -36 76 -44 9 -3 17 -9 17 -13 0 -3 21 -17 48 -31 26 -13 49 -27 52
-30 13 -15 286 -143 375 -175 197 -73 383 -111 585 -118 113 -5 315 8 385 24
348 80 632 249 804 479 61 82 70 96 116 185 48 94 66 148 96 285 11 51 14 331
4 382 -15 74 -40 145 -87 247 -43 90 -183 245 -279 307 -24 16 -46 31 -49 34
-12 12 -90 50 -103 50 -25 0 -27 27 -16 148 7 64 13 133 15 152 5 58 5 731 -1
739 -2 5 -9 62 -15 127 -15 167 -49 359 -86 484 -39 132 -78 257 -85 270 -4 8
-17 40 -29 70 -74 185 -191 377 -277 457 l-24 21 48 38 c59 47 242 230 304
304 127 152 236 332 313 515 10 22 21 49 26 60 15 36 50 158 50 176 0 10 4 20
9 23 5 3 12 31 16 63 4 31 11 67 16 80 4 12 13 55 18 95 5 40 12 84 16 98 6
28 7 431 1 470 -2 14 -9 66 -16 115 -6 50 -15 104 -19 120 -5 17 -19 73 -31
125 -12 52 -26 106 -30 120 -28 82 -75 211 -92 250 -11 25 -26 61 -34 80 -38
88 -133 263 -145 268 -5 2 -9 8 -9 13 0 16 -118 189 -174 254 -114 134 -387
395 -414 395 -6 0 -12 3 -14 8 -8 20 -90 74 -276 185 -65 38 -208 106 -322
152 -25 10 -59 24 -77 31 -17 8 -36 14 -42 14 -6 0 -19 4 -29 9 -29 15 -156
51 -179 51 -12 0 -24 4 -28 9 -3 6 -13 9 -23 9 -9 -1 -47 7 -84 16 -37 10
-103 22 -145 27 -43 5 -109 14 -148 19 -82 10 -480 10 -575 0z m730 -50 c0 -5
-4 -10 -10 -10 -5 0 -10 5 -10 10 0 6 5 10 10 10 6 0 10 -4 10 -10z m-740 -50
c0 -5 -2 -10 -4 -10 -3 0 -8 5 -11 10 -3 6 -1 10 4 10 6 0 11 -4 11 -10z m107
4 c-3 -3 -12 -4 -19 -1 -8 3 -5 6 6 6 11 1 17 -2 13 -5z m563 -50 c63 -8 160
-24 215 -35 156 -32 450 -133 575 -198 104 -53 253 -142 334 -199 162 -113
372 -306 463 -427 52 -69 85 -111 96 -125 7 -8 23 -33 37 -55 13 -22 26 -42
29 -45 8 -7 27 -38 49 -80 10 -19 32 -60 48 -90 17 -30 47 -95 68 -145 21 -49
43 -103 50 -120 24 -55 39 -102 79 -245 15 -55 35 -150 59 -285 20 -108 17
-496 -5 -620 -32 -189 -72 -345 -114 -442 -7 -17 -13 -34 -13 -38 0 -22 -101
-213 -153 -290 -95 -141 -181 -240 -313 -365 -118 -111 -158 -146 -189 -165
-39 -25 -45 -34 -45 -69 0 -22 17 -46 73 -105 90 -93 129 -148 197 -278 14
-26 28 -49 33 -51 4 -2 7 -8 7 -13 0 -10 34 -91 50 -121 6 -10 10 -23 10 -29
0 -6 6 -25 14 -42 18 -40 56 -166 56 -184 0 -7 4 -21 10 -31 20 -36 66 -326
84 -528 22 -237 22 -734 0 -904 -9 -69 -17 -126 -19 -128 -1 -1 -30 5 -63 13
-42 11 -116 17 -241 18 l-180 2 5 100 c7 117 -11 586 -31 830 -21 254 -61 556
-84 633 -14 47 -29 62 -60 62 -37 -1 -64 -25 -64 -57 0 -26 31 -251 54 -391 5
-35 12 -111 15 -170 3 -59 10 -123 15 -142 6 -19 13 -227 16 -461 7 -479 14
-429 -67 -444 -38 -8 -123 -32 -155 -45 -11 -4 -45 -18 -75 -30 -119 -47 -400
-204 -505 -283 -23 -18 -53 -39 -65 -47 -31 -21 -145 -101 -268 -191 -57 -40
-111 -78 -120 -84 -10 -5 -32 -20 -49 -32 -17 -13 -36 -23 -42 -23 -6 0 -53
31 -105 69 -51 38 -106 76 -122 85 -16 9 -40 25 -54 35 -36 27 -190 126 -236
151 -21 12 -46 25 -54 30 -97 60 -294 162 -385 200 -11 5 -37 16 -58 25 -31
15 -40 15 -55 4 -14 -11 -15 -11 -5 1 16 18 -2 27 -152 73 -175 55 -176 55
-220 62 -22 4 -52 11 -67 17 -15 5 -107 13 -205 17 l-178 6 -1 101 c-1 55 3
148 9 207 l10 107 113 -1 c129 0 212 19 329 77 63 31 83 42 119 66 25 16 137
120 173 160 125 138 282 417 358 633 10 28 23 64 30 80 7 17 25 68 40 115 15
47 33 104 41 128 8 23 14 54 14 67 0 21 5 25 31 25 40 0 169 31 169 41 0 4 10
10 23 13 58 16 147 139 168 235 20 88 21 120 5 188 -31 140 -73 200 -195 280
-2 1 17 26 43 55 25 29 46 57 46 63 0 5 6 21 13 36 23 43 28 125 11 177 -19
56 -70 121 -110 142 -16 8 -32 19 -36 25 -4 5 -49 9 -100 9 -125 0 -192 -29
-337 -149 -89 -73 -215 -244 -296 -401 -25 -49 -45 -92 -45 -97 0 -7 -8 -26
-50 -122 -16 -37 -69 -190 -76 -220 -4 -16 -10 -34 -14 -40 -4 -5 -17 -46 -30
-90 -13 -44 -26 -87 -31 -95 -4 -8 -22 -55 -39 -105 -64 -177 -180 -372 -261
-438 -66 -54 -79 -69 -79 -95 0 -56 62 -80 118 -45 83 52 215 233 282 385 11
26 20 52 20 57 0 6 4 11 9 11 5 0 12 14 16 31 4 17 13 42 21 57 8 15 14 35 14
44 0 9 4 19 9 22 5 3 12 23 16 43 4 21 10 43 15 48 4 6 11 27 14 49 4 21 11
46 16 55 4 9 25 68 45 131 35 110 41 127 70 195 117 270 231 443 360 548 105
85 190 114 258 91 64 -22 102 -77 94 -135 -11 -82 -92 -161 -207 -201 -84 -30
-90 -35 -90 -72 0 -43 21 -60 73 -58 23 0 73 -4 112 -11 62 -10 74 -16 112
-54 24 -23 43 -49 43 -58 0 -8 4 -15 9 -15 9 0 34 -80 36 -120 2 -35 -18 -119
-37 -155 -17 -32 -68 -82 -105 -102 -27 -15 -129 -17 -138 -3 -10 17 -61 11
-79 -9 -9 -10 -21 -40 -26 -67 -14 -79 -31 -148 -40 -169 -5 -11 -16 -47 -26
-80 -19 -66 -76 -222 -99 -272 -8 -17 -15 -36 -15 -42 0 -6 -4 -11 -10 -11 -5
0 -10 -5 -10 -12 0 -12 -71 -160 -81 -168 -3 -3 -14 -21 -23 -40 -23 -48 -134
-203 -196 -272 -85 -94 -245 -199 -328 -213 -23 -4 -44 -11 -48 -16 -7 -13
-170 -11 -213 2 -175 53 -283 173 -336 371 -15 56 -17 90 -12 195 6 127 12
153 63 321 85 281 256 595 443 812 49 56 42 81 -35 137 -129 94 -200 148 -239
182 -53 47 -185 180 -210 211 -11 14 -40 50 -65 80 -25 30 -49 62 -55 71 -5 9
-31 47 -56 85 -50 76 -149 272 -149 295 0 8 -4 19 -9 25 -5 5 -18 43 -31 84
-12 41 -25 86 -30 100 -18 53 -50 209 -50 246 0 22 -5 55 -10 74 -19 62 -15
471 4 590 23 136 45 241 57 262 5 10 9 24 9 33 0 17 54 183 77 235 140 323
303 569 523 791 97 97 184 169 385 317 44 32 301 158 400 196 119 45 245 86
267 86 9 0 20 5 23 11 4 6 13 8 21 5 7 -3 16 -1 19 4 4 6 17 10 31 10 24 0
116 19 199 42 96 26 615 28 805 2z m-880 6 c0 -5 -5 -10 -11 -10 -5 0 -7 5 -4
10 3 6 8 10 11 10 2 0 4 -4 4 -10z m1525 -130 c3 -6 -1 -7 -9 -4 -18 7 -21 14
-7 14 6 0 13 -4 16 -10z m570 -260 c3 -5 -1 -10 -10 -10 -9 0 -13 5 -10 10 3
6 8 10 10 10 2 0 7 -4 10 -10z m275 -254 c0 -3 -4 -8 -10 -11 -5 -3 -10 -1
-10 4 0 6 5 11 10 11 6 0 10 -2 10 -4z m-3913 -262 c-3 -3 -12 -4 -19 -1 -8 3
-5 6 6 6 11 1 17 -2 13 -5z m4213 -28 c0 -3 -4 -8 -10 -11 -5 -3 -10 -1 -10 4
0 6 5 11 10 11 6 0 10 -2 10 -4z m-4400 -246 c0 -5 -5 -10 -11 -10 -5 0 -7 5
-4 10 3 6 8 10 11 10 2 0 4 -4 4 -10z m4507 4 c-3 -3 -12 -4 -19 -1 -8 3 -5 6
6 6 11 1 17 -2 13 -5z m128 -314 c3 -5 1 -10 -4 -10 -6 0 -11 5 -11 10 0 6 2
10 4 10 3 0 8 -4 11 -10z m39 -236 c5 -14 4 -15 -9 -4 -17 14 -19 20 -6 20 5
0 12 -7 15 -16z m153 -340 c-3 -3 -12 -4 -19 -1 -8 3 -5 6 6 6 11 1 17 -2 13
-5z m-57 -144 c0 -5 -2 -10 -4 -10 -3 0 -8 5 -11 10 -3 6 -1 10 4 10 6 0 11
-4 11 -10z m30 -620 c0 -5 -5 -10 -11 -10 -5 0 -7 5 -4 10 3 6 8 10 11 10 2 0
4 -4 4 -10z m-3115 -620 c3 -5 1 -10 -4 -10 -6 0 -11 5 -11 10 0 6 2 10 4 10
3 0 8 -4 11 -10z m-165 -120 c0 -5 -5 -10 -11 -10 -5 0 -7 5 -4 10 3 6 8 10
11 10 2 0 4 -4 4 -10z m2627 -322 c-3 -8 -6 -5 -6 6 -1 11 2 17 5 13 3 -3 4
-12 1 -19z m-3747 -8 c0 -5 -4 -10 -10 -10 -5 0 -10 5 -10 10 0 6 5 10 10 10
6 0 10 -4 10 -10z m1423 -25 c-3 -9 -8 -14 -10 -11 -3 3 -2 9 2 15 9 16 15 13
8 -4z m-1326 -51 c-3 -3 -12 -4 -19 -1 -8 3 -5 6 6 6 11 1 17 -2 13 -5z m3793
-484 c0 -5 -4 -10 -10 -10 -5 0 -10 5 -10 10 0 6 5 10 10 10 6 0 10 -4 10 -10z
m-3820 -24 c0 -3 -4 -8 -10 -11 -5 -3 -10 -1 -10 4 0 6 5 11 10 11 6 0 10 -2
10 -4z m3260 -386 c0 -5 -2 -10 -4 -10 -3 0 -8 5 -11 10 -3 6 -1 10 4 10 6 0
11 -4 11 -10z m-2060 -40 c0 -5 -5 -10 -11 -10 -5 0 -7 5 -4 10 3 6 8 10 11
10 2 0 4 -4 4 -10z m-1490 -300 c0 -5 -5 -10 -11 -10 -5 0 -7 5 -4 10 3 6 8
10 11 10 2 0 4 -4 4 -10z m505 -10 c3 -6 -1 -7 -9 -4 -18 7 -21 14 -7 14 6 0
13 -4 16 -10z m-400 -560 c3 -5 1 -10 -4 -10 -6 0 -11 5 -11 10 0 6 2 10 4 10
3 0 8 -4 11 -10z m4205 -164 c0 -3 -4 -8 -10 -11 -5 -3 -10 -1 -10 4 0 6 5 11
10 11 6 0 10 -2 10 -4z m-650 -20 c0 -3 -4 -8 -10 -11 -5 -3 -10 -1 -10 4 0 6
5 11 10 11 6 0 10 -2 10 -4z m-3363 -32 c-3 -3 -12 -4 -19 -1 -8 3 -5 6 6 6
11 1 17 -2 13 -5z m3363 -74 c0 -5 -2 -10 -4 -10 -3 0 -8 5 -11 10 -3 6 -1 10
4 10 6 0 11 -4 11 -10z m-30 -60 c0 -5 -5 -10 -11 -10 -5 0 -7 5 -4 10 3 6 8
10 11 10 2 0 4 -4 4 -10z m690 -70 c0 -5 -5 -10 -11 -10 -5 0 -7 5 -4 10 3 6
8 10 11 10 2 0 4 -4 4 -10z m-50 -260 c0 -5 -7 -10 -16 -10 -8 0 -12 5 -9 10
3 6 10 10 16 10 5 0 9 -4 9 -10z m-3650 -50 c0 -5 -4 -10 -10 -10 -5 0 -10 5
-10 10 0 6 5 10 10 10 6 0 10 -4 10 -10z m3385 -44 c17 -3 55 -8 85 -11 59 -7
144 -28 200 -52 80 -33 190 -98 198 -115 2 -5 8 -8 14 -8 26 0 165 -164 203
-239 63 -126 97 -330 76 -461 -18 -110 -31 -164 -41 -174 -6 -6 -10 -19 -10
-31 0 -19 -85 -203 -99 -215 -3 -3 -20 -25 -36 -50 -44 -66 -187 -203 -268
-256 -100 -66 -257 -144 -291 -144 -9 0 -16 -4 -16 -8 0 -9 -30 -16 -215 -53
-83 -17 -128 -19 -270 -16 -179 5 -200 7 -335 38 -124 28 -220 56 -275 79 -11
5 -60 25 -109 46 -134 56 -376 192 -376 212 0 6 5 12 10 12 6 0 38 20 73 44
34 24 98 67 142 97 44 29 82 56 85 59 3 3 25 18 50 34 l44 29 56 -28 c30 -15
66 -34 80 -40 40 -21 169 -62 255 -83 123 -30 343 -47 385 -30 8 4 47 9 85 13
39 3 74 10 79 16 6 5 18 9 29 9 36 0 204 89 266 141 135 113 193 244 170 391
-17 113 -73 191 -169 236 -50 23 -67 26 -180 26 -135 0 -195 -11 -350 -67
-116 -42 -326 -153 -368 -194 -7 -7 -19 -13 -26 -13 -21 0 -40 -27 -24 -34 7
-3 3 -3 -9 0 -13 3 -28 0 -35 -6 -7 -6 -44 -33 -83 -60 -38 -27 -75 -53 -81
-57 -5 -4 -17 -12 -27 -18 -21 -13 -84 -57 -178 -125 -43 -30 -87 -62 -99 -70
-12 -8 -33 -23 -45 -32 -43 -33 -366 -248 -372 -248 -4 0 -14 -6 -22 -14 -9
-7 -47 -30 -86 -51 -38 -21 -86 -48 -105 -59 -77 -47 -283 -132 -400 -166
-140 -41 -318 -75 -465 -90 -120 -12 -364 -11 -409 1 -18 5 -66 15 -107 23
-124 24 -173 35 -194 45 -11 5 -49 19 -85 32 -307 107 -558 315 -671 559 -22
47 -44 92 -49 101 -5 9 -12 34 -16 55 -3 22 -12 45 -18 53 -6 8 -11 72 -11
170 0 120 4 172 18 226 41 152 144 311 262 402 42 32 151 93 167 93 6 0 24 6
41 14 119 54 361 79 544 57 185 -23 431 -91 581 -162 35 -16 66 -29 70 -29 8
0 118 -56 222 -112 36 -19 92 -50 125 -68 33 -18 100 -57 148 -86 48 -30 93
-52 99 -48 6 4 8 3 4 -4 -3 -6 35 -38 91 -76 170 -114 193 -131 193 -141 0 -5
-22 -24 -48 -41 -26 -17 -67 -44 -92 -61 -25 -16 -72 -48 -105 -70 -33 -22
-76 -49 -95 -60 -19 -10 -47 -27 -62 -36 l-26 -18 -79 55 c-104 73 -349 221
-443 267 -110 54 -168 79 -180 79 -5 0 -18 4 -28 9 -60 32 -203 66 -335 81
-100 12 -298 0 -335 -20 -9 -5 -38 -18 -65 -30 -78 -36 -147 -145 -147 -231 0
-38 24 -126 48 -174 49 -97 187 -213 322 -270 175 -74 282 -97 454 -98 195 -2
368 25 511 78 39 15 81 30 95 34 14 5 73 32 130 61 58 29 115 58 127 64 13 6
23 14 23 19 0 4 5 7 10 7 23 0 287 169 512 327 26 18 52 33 58 33 5 0 10 3 10
8 0 4 17 18 38 32 20 14 87 61 147 105 61 44 128 92 150 107 22 15 72 50 110
78 193 137 349 225 550 309 95 41 171 59 330 79 123 17 223 19 290 8z m-3055
-6 c0 -5 -4 -10 -10 -10 -5 0 -10 5 -10 10 0 6 5 10 10 10 6 0 10 -4 10 -10z
m3450 -34 c0 -3 -4 -8 -10 -11 -5 -3 -10 -1 -10 4 0 6 5 11 10 11 6 0 10 -2
10 -4z m-3233 -62 c-3 -3 -12 -4 -19 -1 -8 3 -5 6 6 6 11 1 17 -2 13 -5z m318
-92 c-3 -3 -11 0 -18 7 -9 10 -8 11 6 5 10 -3 15 -9 12 -12z m1435 -27 c-7 -8
-18 -15 -24 -15 -6 0 -2 7 8 15 25 19 32 19 16 0z m-1520 -5 c0 -5 -4 -10 -10
-10 -5 0 -10 5 -10 10 0 6 5 10 10 10 6 0 10 -4 10 -10z m300 -120 c0 -5 -2
-10 -4 -10 -3 0 -8 5 -11 10 -3 6 -1 10 4 10 6 0 11 -4 11 -10z m180 -84 c0
-11 -19 -15 -25 -6 -3 5 1 10 9 10 9 0 16 -2 16 -4z m-50 -35 c0 -6 -4 -13
-10 -16 -5 -3 -10 1 -10 9 0 9 5 16 10 16 6 0 10 -4 10 -9z m110 -1 c0 -5 -2
-10 -4 -10 -3 0 -8 5 -11 10 -3 6 -1 10 4 10 6 0 11 -4 11 -10z m670 6 c0 -3
-4 -8 -10 -11 -5 -3 -10 -1 -10 4 0 6 5 11 10 11 6 0 10 -2 10 -4z m-730 -10
c0 -3 -4 -8 -10 -11 -5 -3 -10 -1 -10 4 0 6 5 11 10 11 6 0 10 -2 10 -4z
m2037 -102 c-3 -3 -12 -4 -19 -1 -8 3 -5 6 6 6 11 1 17 -2 13 -5z m-1817 -38
c0 -3 -4 -8 -10 -11 -5 -3 -10 -1 -10 4 0 6 5 11 10 11 6 0 10 -2 10 -4z m370
-6 c0 -5 -4 -10 -10 -10 -5 0 -10 5 -10 10 0 6 5 10 10 10 6 0 10 -4 10 -10z
m1490 0 c0 -5 -4 -10 -10 -10 -5 0 -10 5 -10 10 0 6 5 10 10 10 6 0 10 -4 10
-10z m-3013 -16 c-3 -3 -12 -4 -19 -1 -8 3 -5 6 6 6 11 1 17 -2 13 -5z m-307
-14 c104 -19 156 -30 175 -39 11 -5 43 -17 70 -26 132 -46 305 -128 428 -202
169 -103 247 -157 247 -174 0 -4 -16 -10 -35 -13 -19 -4 -35 -11 -35 -15 0 -5
-17 -13 -37 -19 -21 -6 -63 -18 -93 -27 -107 -32 -212 -55 -246 -55 -19 0 -34
-3 -34 -7 0 -11 -333 3 -356 15 -10 5 -37 12 -59 16 -131 22 -323 134 -384
224 -32 47 -61 124 -61 163 0 72 67 144 149 160 51 10 217 9 271 -1z m3334
-12 c131 -38 187 -145 138 -268 -45 -115 -106 -175 -247 -244 -77 -39 -107
-48 -210 -62 -118 -17 -124 -17 -265 3 -80 12 -174 29 -210 38 -61 15 -219 84
-220 95 0 3 11 12 24 20 13 8 103 68 199 133 96 64 178 117 182 117 4 0 33 16
65 35 32 19 63 35 69 35 6 0 34 11 61 24 28 14 65 28 83 31 18 4 37 11 42 15
6 5 43 13 83 18 41 6 77 13 80 16 9 10 83 7 126 -6z m-2787 -64 c-3 -3 -12 -4
-19 -1 -8 3 -5 6 6 6 11 1 17 -2 13 -5z m2138 -74 c3 -5 1 -10 -4 -10 -6 0
-11 5 -11 10 0 6 2 10 4 10 3 0 8 -4 11 -10z m-3128 -16 c-3 -3 -12 -4 -19 -1
-8 3 -5 6 6 6 11 1 17 -2 13 -5z m1166 -91 c-7 -2 -19 -2 -25 0 -7 3 -2 5 12
5 14 0 19 -2 13 -5z m-1871 -45 c-6 -6 -15 -8 -19 -4 -4 4 -1 11 7 16 19 12
27 3 12 -12z m3485 -194 c-3 -3 -12 -4 -19 -1 -8 3 -5 6 6 6 11 1 17 -2 13 -5z
m-227 -74 c0 -5 -5 -10 -11 -10 -5 0 -7 5 -4 10 3 6 8 10 11 10 2 0 4 -4 4
-10z m-1883 -106 c-3 -3 -12 -4 -19 -1 -8 3 -5 6 6 6 11 1 17 -2 13 -5z m2463
-4 c0 -5 -4 -10 -10 -10 -5 0 -10 5 -10 10 0 6 5 10 10 10 6 0 10 -4 10 -10z
m-883 -26 c-3 -3 -12 -4 -19 -1 -8 3 -5 6 6 6 11 1 17 -2 13 -5z m-32 -65 c11
-17 2 -18 -19 -3 -17 12 -17 14 -4 14 9 0 20 -5 23 -11z m-20 -39 c3 -5 1 -10
-4 -10 -6 0 -11 5 -11 10 0 6 2 10 4 10 3 0 8 -4 11 -10z m-345 -124 c0 -3 -4
-8 -10 -11 -5 -3 -10 -1 -10 4 0 6 5 11 10 11 6 0 10 -2 10 -4z m-237 -153
c-7 -2 -19 -2 -25 0 -7 3 -2 5 12 5 14 0 19 -2 13 -5z m-63 -13 c0 -5 -4 -10
-10 -10 -5 0 -10 5 -10 10 0 6 5 10 10 10 6 0 10 -4 10 -10z m-1364 -47 c-10
-10 -19 5 -10 18 6 11 8 11 12 0 2 -7 1 -15 -2 -18z m1409 17 c-3 -5 -11 -10
-16 -10 -6 0 -7 5 -4 10 3 6 11 10 16 10 6 0 7 -4 4 -10z m1031 -5 c17 -16 14
-18 -10 -9 -9 3 -16 10 -16 15 0 13 9 11 26 -6z m-2451 -43 c-3 -3 -11 0 -18
7 -9 10 -8 11 6 5 10 -3 15 -9 12 -12z m2895 -16 c0 -3 -4 -8 -10 -11 -5 -3
-10 -1 -10 4 0 6 5 11 10 11 6 0 10 -2 10 -4z m-2530 -26 c0 -5 -2 -10 -4 -10
-3 0 -8 5 -11 10 -3 6 -1 10 4 10 6 0 11 -4 11 -10z m97 -46 c-3 -3 -12 -4
-19 -1 -8 3 -5 6 6 6 11 1 17 -2 13 -5z m446 -1 c-7 -2 -19 -2 -25 0 -7 3 -2
5 12 5 14 0 19 -2 13 -5z m2134 1 c-3 -3 -12 -4 -19 -1 -8 3 -5 6 6 6 11 1 17
-2 13 -5z"/>
<path d="M5061 7209 c-64 -11 -91 -31 -91 -69 0 -49 15 -53 182 -46 113 5 169
3 215 -7 54 -12 67 -12 93 1 37 18 41 59 8 89 -42 38 -263 56 -407 32z m162
-16 c-7 -2 -19 -2 -25 0 -7 3 -2 5 12 5 14 0 19 -2 13 -5z m77 -7 c0 -3 -4 -8
-10 -11 -5 -3 -10 -1 -10 4 0 6 5 11 10 11 6 0 10 -2 10 -4z"/>
<path d="M3265 7114 c-56 -12 -152 -37 -170 -44 -11 -5 -38 -16 -60 -25 -45
-18 -55 -30 -55 -67 0 -42 67 -77 96 -49 10 10 53 23 149 47 42 11 83 13 140
9 75 -6 81 -5 101 17 31 34 34 51 15 77 -25 33 -135 51 -216 35z"/>
<path d="M5174 6900 c-45 -18 -87 -99 -100 -190 -2 -14 4 -54 13 -89 20 -78
61 -124 121 -141 92 -24 202 48 202 132 0 13 4 28 10 34 14 14 -15 136 -44
182 -33 53 -82 82 -137 81 -24 0 -54 -4 -65 -9z"/>
<path d="M3260 6772 c-77 -35 -105 -92 -105 -212 1 -75 4 -90 27 -126 57 -89
127 -108 203 -56 78 54 101 141 65 247 -40 117 -120 179 -190 147z m83 -269
c-7 -2 -19 -2 -25 0 -7 3 -2 5 12 5 14 0 19 -2 13 -5z"/>
<path d="M4230 5981 c-75 -11 -131 -29 -157 -54 -47 -42 -14 -117 44 -103 85
21 117 25 205 32 103 7 203 -6 245 -33 12 -8 39 -13 60 -11 37 3 38 4 41 46 2
25 -2 50 -9 59 -12 13 -68 42 -112 57 -29 9 -258 14 -317 7z"/>
</g>
</svg>
