<?xml version="1.0" standalone="no"?>
<!DOCTYPE svg PUBLIC "-//W3C//DTD SVG 20010904//EN"
 "http://www.w3.org/TR/2001/REC-SVG-20010904/DTD/svg10.dtd">
<svg version="1.0" xmlns="http://www.w3.org/2000/svg"
 width="652.000000pt" height="694.000000pt" viewBox="0 0 652.000000 694.000000"
 preserveAspectRatio="xMidYMid meet">

<g transform="translate(0.000000,694.000000) scale(0.100000,-0.100000)"
fill="#000000" stroke="none">
<path d="M2405 6480 c-22 -5 -71 -14 -110 -19 -118 -17 -200 -33 -210 -41 -5
-4 -30 -11 -55 -15 -24 -4 -51 -11 -60 -15 -8 -5 -37 -16 -65 -25 -140 -49
-302 -134 -414 -219 -88 -67 -238 -215 -308 -304 -89 -114 -203 -304 -203
-339 0 -7 -4 -13 -9 -13 -5 0 -13 -15 -16 -32 -4 -18 -11 -37 -14 -43 -4 -5
-18 -41 -30 -80 -12 -38 -26 -84 -31 -100 -11 -34 -27 -125 -40 -230 -11 -91
-11 -302 0 -385 17 -128 27 -168 68 -290 37 -111 126 -289 185 -369 65 -88
185 -218 233 -253 24 -17 44 -34 44 -38 0 -4 -33 -40 -73 -81 -69 -69 -155
-174 -170 -209 -4 -8 -21 -37 -37 -65 -17 -27 -33 -57 -37 -65 -3 -8 -17 -42
-31 -75 -51 -123 -72 -201 -97 -352 -8 -46 -16 -87 -19 -91 -3 -5 -10 -107
-16 -228 -9 -160 -9 -269 -1 -403 11 -178 12 -184 36 -207 39 -36 91 -30 118
15 14 23 14 45 5 171 -10 147 -4 471 12 590 15 115 29 204 39 240 29 101 55
187 62 200 4 8 24 49 43 91 68 148 189 299 317 399 58 45 68 60 69 92 0 28 -3
30 -120 117 -91 67 -192 171 -248 255 -52 78 -142 251 -142 273 0 7 -4 21 -9
31 -13 23 -38 114 -53 187 -25 130 -9 580 22 620 5 6 11 31 15 58 4 26 11 50
16 53 5 3 9 13 9 22 0 9 6 29 14 44 8 15 17 40 21 57 4 17 10 31 15 31 4 0 11
11 14 25 4 14 28 59 54 101 26 42 52 83 57 93 20 34 164 207 201 242 61 56
186 149 224 166 8 4 17 9 20 12 14 16 223 111 244 111 8 0 17 4 20 9 4 5 24
12 46 16 22 4 42 10 45 15 3 4 26 11 52 15 27 4 53 10 58 13 12 8 123 29 225
41 96 13 353 13 450 1 121 -15 313 -54 341 -70 9 -5 33 -12 53 -15 20 -4 39
-11 42 -16 3 -5 12 -9 20 -9 18 0 75 -25 193 -83 306 -151 528 -390 680 -729
12 -26 21 -53 21 -60 0 -8 4 -18 9 -23 19 -20 59 -203 73 -340 15 -142 -5
-339 -53 -515 -6 -25 -16 -49 -20 -54 -5 -6 -9 -17 -9 -24 0 -22 -67 -158
-109 -222 -20 -30 -38 -60 -41 -67 -11 -26 -166 -196 -241 -263 -69 -62 -79
-76 -79 -105 0 -24 7 -39 26 -54 58 -46 107 -19 269 150 81 84 191 221 221
274 52 94 108 214 119 255 3 14 10 34 15 45 4 11 15 49 24 85 66 275 64 538
-7 801 -67 248 -252 560 -430 724 -65 61 -163 140 -196 159 -10 6 -56 34 -102
62 -46 28 -111 63 -144 78 -33 15 -73 34 -89 42 -16 8 -34 14 -40 14 -6 0 -23
6 -38 14 -15 8 -41 17 -59 21 -19 4 -40 11 -49 16 -34 17 -199 54 -345 76
-116 17 -432 25 -490 13z"/>
<path d="M2071 5236 c-85 -44 -173 -66 -265 -66 -62 0 -92 -14 -103 -47 -13
-41 -5 -71 23 -90 34 -22 237 -12 309 15 95 36 126 53 165 88 45 41 51 75 21
111 -32 38 -59 36 -150 -11z"/>
<path d="M3073 5256 c-74 -63 -4 -146 177 -212 27 -9 92 -18 161 -21 112 -5
117 -4 138 18 24 26 27 75 6 103 -11 15 -34 21 -107 27 -51 5 -106 12 -123 15
-34 7 -157 63 -165 75 -3 4 -17 10 -31 14 -19 5 -33 0 -56 -19z"/>
<path d="M1942 4839 c-37 -11 -72 -38 -72 -55 0 -7 -6 -14 -12 -16 -9 -3 -13
-29 -13 -81 0 -77 0 -77 42 -118 37 -37 48 -43 97 -47 68 -5 117 21 146 79 40
76 13 196 -51 226 -37 18 -100 23 -137 12z"/>
<path d="M3220 4839 c-19 -6 -41 -16 -48 -22 -26 -21 -52 -87 -52 -132 0 -54
16 -88 60 -130 28 -27 38 -30 96 -30 62 0 65 1 106 42 39 39 42 47 45 105 6
103 -38 160 -132 172 -22 3 -56 0 -75 -5z"/>
<path d="M2540 4383 c-19 -2 -39 -9 -44 -14 -6 -5 -19 -9 -31 -9 -29 0 -148
-62 -212 -110 -63 -48 -79 -94 -46 -138 32 -43 79 -42 136 5 42 34 76 55 161
94 37 18 246 19 267 3 8 -7 29 -15 47 -19 17 -3 32 -11 32 -16 0 -5 7 -9 15
-9 9 0 38 -20 64 -45 53 -50 90 -58 127 -27 47 38 33 109 -29 152 -20 14 -37
28 -37 33 0 4 -5 7 -11 7 -6 0 -23 8 -37 19 -55 39 -172 71 -272 75 -52 2
-111 2 -130 -1z"/>
<path d="M4415 3750 c-3 -5 -14 -10 -23 -10 -22 0 -91 -37 -131 -71 -32 -26
-81 -93 -81 -109 0 -6 -4 -10 -10 -10 -5 0 -10 -4 -10 -10 0 -5 -34 -66 -75
-135 -41 -70 -75 -130 -75 -136 0 -5 -4 -9 -10 -9 -5 0 -10 -5 -10 -11 0 -6
-43 -83 -95 -170 -52 -88 -95 -164 -95 -169 0 -6 -4 -10 -10 -10 -5 0 -10 -5
-10 -11 0 -6 -22 -48 -50 -94 -27 -46 -50 -88 -50 -94 0 -6 -3 -11 -8 -11 -4
0 -16 -17 -27 -37 -10 -21 -54 -97 -97 -169 -43 -73 -78 -137 -78 -143 0 -6
-4 -11 -9 -11 -5 0 -12 -11 -15 -25 -4 -14 -11 -25 -16 -25 -6 0 -10 -5 -10
-11 0 -6 -26 -55 -58 -108 -32 -53 -61 -103 -65 -111 -4 -8 -21 -37 -37 -65
-74 -122 -84 -153 -84 -255 0 -87 2 -100 31 -157 41 -80 94 -132 180 -174 l68
-34 975 -3 c934 -3 1121 1 1140 26 3 4 23 16 44 27 55 28 121 97 147 153 12
26 25 55 30 64 15 29 10 156 -8 211 -9 29 -40 90 -68 137 -28 47 -62 106 -75
133 -14 26 -28 47 -32 47 -5 0 -8 5 -8 11 0 6 -22 48 -50 94 -27 46 -50 88
-50 94 0 6 -4 11 -9 11 -5 0 -11 8 -15 18 -3 9 -10 24 -15 32 -6 8 -31 51 -56
95 -25 44 -50 87 -56 95 -5 8 -12 22 -16 30 -4 8 -33 59 -65 113 -32 53 -58
99 -58 102 0 2 -38 67 -85 145 -47 78 -85 144 -85 147 0 3 -22 42 -49 87 -27
44 -58 98 -70 119 -12 20 -30 54 -42 75 -127 225 -177 281 -286 316 -57 18
-168 22 -178 6z m160 -173 c38 -22 89 -86 131 -166 10 -20 44 -80 76 -134 32
-55 58 -101 58 -103 0 -3 110 -193 130 -224 6 -8 14 -24 19 -36 5 -12 26 -46
45 -77 20 -31 41 -67 47 -79 5 -13 15 -32 22 -43 7 -11 41 -70 77 -130 36 -61
69 -117 75 -126 5 -10 23 -41 38 -70 16 -30 32 -56 35 -59 4 -3 15 -21 26 -40
53 -99 84 -155 142 -253 35 -59 64 -111 64 -116 0 -5 3 -11 8 -13 4 -1 22 -31
40 -66 23 -45 32 -77 32 -111 0 -92 -67 -178 -156 -200 -60 -15 -1938 -15
-1998 0 -44 11 -100 55 -132 104 -13 20 -18 46 -18 94 0 62 3 72 47 144 26 43
47 79 47 81 0 4 113 200 131 226 5 8 12 23 15 33 4 9 10 17 15 17 5 0 9 5 9
11 0 5 36 71 80 145 44 74 80 136 80 138 0 3 34 61 75 129 41 69 75 130 75
136 0 6 5 11 10 11 6 0 10 4 10 10 0 5 43 82 95 170 52 88 95 165 95 170 0 6
5 10 10 10 6 0 10 5 10 10 0 6 34 67 75 136 41 69 75 128 75 131 0 7 62 95 80
113 53 53 140 64 205 27z"/>
<path d="M4442 3120 c-40 -9 -68 -34 -89 -77 -12 -26 -14 -54 -10 -135 28
-497 36 -607 46 -632 18 -45 50 -65 103 -66 41 0 52 5 82 34 l34 34 6 209 c3
114 10 255 16 313 14 148 13 202 -7 241 -25 49 -43 66 -88 78 -45 12 -46 12
-93 1z"/>
<path d="M4419 2050 c-77 -41 -102 -143 -54 -220 31 -50 70 -70 135 -70 45 0
55 4 95 41 35 32 45 50 51 84 11 74 -21 132 -93 173 -33 17 -92 14 -134 -8z"/>
</g>
</svg>
