<?xml version="1.0" standalone="no"?>
<!DOCTYPE svg PUBLIC "-//W3C//DTD SVG 20010904//EN"
 "http://www.w3.org/TR/2001/REC-SVG-20010904/DTD/svg10.dtd">
<svg version="1.0" xmlns="http://www.w3.org/2000/svg"
 width="756.000000pt" height="1086.000000pt" viewBox="0 0 756.000000 1086.000000"
 preserveAspectRatio="xMidYMid meet">

<g transform="translate(0.000000,1086.000000) scale(0.100000,-0.100000)"
fill="#000000" stroke="none">
<path d="M6026 9603 c-33 -5 -102 -45 -131 -77 -54 -57 -87 -150 -84 -237 2
-58 21 -153 39 -194 42 -99 88 -184 137 -251 73 -101 201 -254 218 -260 13 -5
84 30 169 85 28 17 55 31 62 31 7 0 14 4 16 8 2 5 35 28 75 51 83 49 215 160
258 217 16 21 31 41 34 44 14 12 51 99 51 118 0 11 5 24 10 27 15 9 12 70 -6
132 -26 91 -121 170 -225 187 -19 4 -59 2 -87 -4 -53 -10 -162 -57 -162 -71 0
-4 -7 -9 -15 -12 -9 -4 -21 8 -36 38 -33 66 -71 108 -127 138 -51 27 -135 41
-196 30z m105 -124 c42 -14 85 -54 105 -95 18 -38 34 -131 27 -165 -4 -20 2
-31 22 -48 15 -11 35 -21 44 -21 21 0 61 36 61 54 0 22 92 111 139 135 150 77
286 -60 210 -212 -45 -89 -218 -237 -384 -327 -33 -18 -69 -39 -80 -46 -11 -8
-25 -14 -31 -14 -14 0 -121 130 -170 206 -91 142 -124 226 -131 334 -5 85 -5
85 29 130 30 41 86 80 114 80 6 0 26 -5 45 -11z m-221 -169 c0 -5 -5 -10 -11
-10 -5 0 -7 5 -4 10 3 6 8 10 11 10 2 0 4 -4 4 -10z m950 -50 c0 -5 -2 -10 -4
-10 -3 0 -8 5 -11 10 -3 6 -1 10 4 10 6 0 11 -4 11 -10z m-930 -100 c0 -5 -5
-10 -11 -10 -5 0 -7 5 -4 10 3 6 8 10 11 10 2 0 4 -4 4 -10z m920 -14 c0 -3
-4 -8 -10 -11 -5 -3 -10 -1 -10 4 0 6 5 11 10 11 6 0 10 -2 10 -4z m-875 -86
c3 -5 1 -10 -4 -10 -6 0 -11 5 -11 10 0 6 2 10 4 10 3 0 8 -4 11 -10z m65
-105 c-7 -9 -15 -13 -17 -11 -7 7 7 26 19 26 6 0 6 -6 -2 -15z"/>
<path d="M3420 9481 c-25 -5 -76 -13 -115 -20 -131 -22 -328 -66 -360 -80 -11
-5 -47 -18 -80 -29 -137 -46 -238 -85 -282 -109 -27 -14 -84 -44 -128 -68
-102 -53 -159 -87 -163 -97 -2 -4 -8 -8 -13 -8 -9 0 -92 -57 -146 -100 -17
-14 -48 -38 -69 -55 -124 -97 -267 -241 -374 -377 -44 -57 -85 -109 -91 -116
-5 -7 -36 -52 -68 -100 -221 -333 -348 -691 -391 -1107 -10 -100 -4 -429 9
-500 6 -33 16 -87 21 -120 25 -139 32 -170 41 -179 5 -6 9 -17 9 -26 0 -20 36
-142 57 -190 8 -19 18 -44 23 -55 23 -57 115 -243 130 -265 10 -14 37 -54 60
-90 24 -36 47 -66 52 -68 4 -2 8 -8 8 -13 0 -28 224 -263 353 -369 l66 -55
-38 -40 c-58 -60 -144 -176 -208 -279 -62 -101 -173 -322 -173 -346 0 -9 -4
-20 -9 -25 -11 -13 -114 -317 -143 -425 -10 -37 -29 -128 -46 -220 -13 -72
-38 -273 -53 -430 -11 -121 -8 -509 6 -610 3 -25 10 -74 15 -109 9 -61 8 -66
-13 -80 -18 -13 -78 -65 -122 -106 -25 -23 -112 -143 -130 -180 -11 -22 -23
-41 -27 -43 -5 -2 -8 -8 -8 -14 0 -5 -6 -24 -14 -41 -52 -121 -69 -210 -70
-372 0 -176 24 -301 85 -433 16 -35 29 -65 29 -68 0 -7 87 -138 115 -174 47
-61 215 -220 273 -258 95 -64 210 -126 337 -182 11 -5 61 -22 110 -39 80 -26
130 -38 335 -81 30 -6 134 -14 230 -17 177 -5 291 3 445 32 44 9 107 20 140
26 33 5 69 14 80 18 11 5 54 19 95 31 41 13 79 27 85 31 5 5 15 9 22 9 12 0
143 57 193 84 14 8 54 29 90 48 36 18 67 36 68 41 2 4 8 7 14 7 6 0 47 23 93
50 46 28 86 50 91 50 4 0 56 -29 115 -65 58 -36 111 -65 117 -65 6 0 12 -3 14
-7 3 -8 101 -56 178 -90 19 -8 48 -21 63 -29 16 -8 35 -14 42 -14 8 0 29 -7
47 -14 35 -16 160 -53 193 -58 11 -2 22 -6 25 -9 7 -7 98 -25 235 -46 135 -21
406 -23 525 -5 129 21 302 65 325 84 5 4 14 8 21 8 21 0 164 70 256 126 125
75 265 199 351 311 54 72 127 193 151 253 10 25 24 60 32 78 8 18 14 41 14 50
0 10 4 22 9 28 6 5 17 67 26 138 24 200 -3 395 -75 546 -78 161 -241 325 -384
385 -46 19 -47 21 -42 55 4 19 11 80 16 135 6 55 15 141 20 192 14 133 12 341
-5 515 -16 158 -17 170 -34 278 -27 164 -97 435 -140 545 -5 11 -18 47 -31 80
-12 33 -26 69 -30 80 -120 278 -222 460 -333 589 -45 52 -48 59 -33 68 61 34
283 253 377 373 91 115 216 335 289 510 34 81 104 328 114 400 2 17 9 63 15
104 39 261 31 550 -24 816 -8 39 -18 84 -24 100 -5 17 -17 57 -26 90 -22 75
-51 165 -66 202 -34 83 -42 101 -54 128 -56 125 -155 298 -243 424 -127 182
-333 403 -477 511 -33 25 -62 47 -65 50 -10 10 -124 83 -209 134 -118 70 -321
168 -378 183 -15 3 -38 12 -52 19 -14 8 -34 14 -43 14 -9 0 -19 4 -22 9 -4 5
-25 12 -49 16 -23 4 -46 11 -52 15 -5 4 -30 11 -55 15 -24 4 -51 11 -60 16 -8
4 -42 13 -75 19 -297 54 -281 52 -590 55 -165 2 -320 0 -345 -4z m280 -81 c0
-5 -5 -10 -11 -10 -5 0 -7 5 -4 10 3 6 8 10 11 10 2 0 4 -4 4 -10z m260 -45
c36 -3 92 -8 125 -12 33 -4 64 -6 69 -5 4 2 13 -1 20 -6 6 -5 37 -12 69 -16
33 -3 93 -16 135 -27 43 -12 91 -25 107 -29 33 -7 178 -56 210 -70 11 -5 45
-19 75 -31 53 -21 218 -102 290 -142 35 -19 224 -142 244 -158 163 -132 351
-327 463 -480 119 -164 312 -541 338 -660 4 -19 11 -38 15 -44 12 -18 64 -237
75 -319 4 -27 10 -70 13 -95 12 -79 8 -452 -6 -546 -14 -98 -37 -222 -51 -270
-5 -16 -19 -64 -31 -105 -12 -41 -28 -89 -36 -107 -8 -17 -14 -34 -14 -38 0
-14 -125 -263 -158 -315 -53 -84 -176 -234 -256 -313 -87 -86 -222 -208 -245
-221 -17 -10 -51 -46 -51 -54 0 -13 35 -82 41 -82 11 0 116 -127 164 -200 53
-81 205 -381 205 -407 0 -4 6 -19 13 -33 7 -14 23 -54 36 -90 13 -36 27 -74
31 -85 14 -34 50 -158 50 -172 0 -7 4 -21 10 -31 28 -51 81 -374 101 -617 10
-130 7 -496 -6 -570 -3 -16 -9 -63 -14 -103 -5 -40 -11 -76 -15 -79 -3 -4 -16
-1 -29 5 -41 21 -254 50 -379 51 l-67 1 2 257 c2 253 -10 640 -20 656 -3 5 -9
56 -14 114 -10 128 -25 224 -56 368 -14 61 -27 122 -30 138 -5 25 -45 67 -64
67 -4 0 -21 -12 -38 -26 -32 -26 -38 -51 -22 -82 21 -39 66 -310 85 -512 29
-299 35 -408 37 -655 1 -204 -6 -324 -20 -338 -4 -4 -43 -14 -87 -22 -103 -18
-177 -35 -189 -45 -5 -4 -26 -11 -45 -15 -19 -4 -41 -11 -50 -16 -8 -4 -33
-16 -55 -25 -140 -59 -186 -81 -263 -126 -34 -21 -65 -38 -68 -38 -3 0 -25
-13 -48 -28 -22 -15 -48 -31 -56 -35 -8 -4 -27 -15 -42 -25 -15 -9 -57 -36
-95 -60 -37 -24 -108 -72 -158 -107 -49 -35 -147 -102 -217 -150 -70 -47 -130
-90 -133 -95 -14 -23 -52 -5 -162 78 -169 127 -326 233 -498 334 -82 49 -157
93 -165 98 -36 23 -216 110 -228 110 -7 0 -20 4 -30 10 -35 19 -111 50 -124
50 -8 0 -18 4 -23 9 -6 5 -44 18 -85 30 -41 13 -84 26 -95 31 -23 10 -163 39
-245 51 -92 13 -96 15 -93 57 1 20 5 98 7 172 6 170 30 462 51 605 51 351 53
364 85 500 49 209 50 215 38 241 -25 53 -101 33 -121 -32 -66 -225 -129 -589
-151 -872 -3 -40 -7 -76 -9 -80 -3 -4 -7 -83 -11 -177 -3 -93 -9 -220 -12
-282 l-7 -112 -76 -4 c-74 -4 -206 -21 -246 -31 -11 -3 -42 -11 -70 -17 -27
-6 -54 -15 -60 -19 -5 -4 -24 -11 -42 -14 -30 -7 -31 -6 -37 31 -41 285 -31
646 28 1028 26 165 64 337 79 351 4 4 7 16 7 26 0 18 33 125 51 163 5 11 20
49 33 85 105 285 264 546 430 710 42 41 66 73 66 87 0 15 -19 36 -62 70 -35
26 -76 59 -93 72 -50 42 -279 274 -305 310 -14 18 -37 47 -51 65 -27 33 -132
207 -161 266 -97 202 -159 417 -183 644 -3 27 -8 53 -11 57 -6 10 -6 435 0
469 3 14 12 66 20 115 21 125 37 206 47 230 4 11 17 54 29 95 12 41 28 89 36
107 8 17 14 36 14 42 0 6 4 19 9 29 5 9 29 58 53 107 24 50 63 122 87 160 23
39 47 79 54 90 7 11 24 36 39 56 16 20 28 41 28 47 0 6 4 12 8 14 4 2 37 41
72 88 66 87 277 306 364 376 76 61 217 161 256 181 19 10 37 21 40 24 12 16
309 158 380 183 25 8 70 24 100 36 30 11 82 27 115 35 33 7 78 19 100 25 224
63 532 87 835 65z m247 -1 c-3 -3 -12 -4 -19 -1 -8 3 -5 6 6 6 11 1 17 -2 13
-5z m543 -104 c0 -5 -5 -10 -11 -10 -5 0 -7 5 -4 10 3 6 8 10 11 10 2 0 4 -4
4 -10z m50 0 c0 -5 -4 -10 -10 -10 -5 0 -10 5 -10 10 0 6 5 10 10 10 6 0 10
-4 10 -10z m-2950 -590 c0 -5 -2 -10 -4 -10 -3 0 -8 5 -11 10 -3 6 -1 10 4 10
6 0 11 -4 11 -10z m-150 -160 c0 -5 -5 -10 -11 -10 -5 0 -7 5 -4 10 3 6 8 10
11 10 2 0 4 -4 4 -10z m4337 -366 c-3 -3 -12 -4 -19 -1 -8 3 -5 6 6 6 11 1 17
-2 13 -5z m-4627 -104 c0 -5 -5 -10 -11 -10 -5 0 -7 5 -4 10 3 6 8 10 11 10 2
0 4 -4 4 -10z m-60 -240 c0 -5 -5 -10 -11 -10 -5 0 -7 5 -4 10 3 6 8 10 11 10
2 0 4 -4 4 -10z m-150 -500 c0 -5 -2 -10 -4 -10 -3 0 -8 5 -11 10 -3 6 -1 10
4 10 6 0 11 -4 11 -10z m5045 -90 c3 -5 1 -10 -4 -10 -6 0 -11 5 -11 10 0 6 2
10 4 10 3 0 8 -4 11 -10z m-4875 -944 c0 -3 -4 -8 -10 -11 -5 -3 -10 -1 -10 4
0 6 5 11 10 11 6 0 10 -2 10 -4z m4777 -138 c-3 -8 -6 -5 -6 6 -1 11 2 17 5
13 3 -3 4 -12 1 -19z m-4737 -58 c0 -5 -5 -10 -11 -10 -5 0 -7 5 -4 10 3 6 8
10 11 10 2 0 4 -4 4 -10z m4580 -230 c0 -5 -4 -10 -10 -10 -5 0 -10 5 -10 10
0 6 5 10 10 10 6 0 10 -4 10 -10z m-4350 -120 c0 -5 -4 -10 -10 -10 -5 0 -10
5 -10 10 0 6 5 10 10 10 6 0 10 -4 10 -10z m160 -230 c0 -5 -2 -10 -4 -10 -3
0 -8 5 -11 10 -3 6 -1 10 4 10 6 0 11 -4 11 -10z m3840 -10 c0 -5 -5 -10 -11
-10 -5 0 -7 5 -4 10 3 6 8 10 11 10 2 0 4 -4 4 -10z m-30 -76 c0 -8 -4 -12
-10 -9 -5 3 -10 10 -10 16 0 5 5 9 10 9 6 0 10 -7 10 -16z m-3760 -304 c0 -5
-4 -10 -10 -10 -5 0 -10 5 -10 10 0 6 5 10 10 10 6 0 10 -4 10 -10z m85 -10
c3 -5 1 -10 -4 -10 -6 0 -11 5 -11 10 0 6 2 10 4 10 3 0 8 -4 11 -10z m3905
-500 c0 -5 -4 -10 -10 -10 -5 0 -10 5 -10 10 0 6 5 10 10 10 6 0 10 -4 10 -10z
m-4260 -121 c0 -5 -4 -9 -10 -9 -5 0 -10 7 -10 16 0 8 5 12 10 9 6 -3 10 -10
10 -16z m3750 -89 c0 -5 -4 -10 -10 -10 -5 0 -10 5 -10 10 0 6 5 10 10 10 6 0
10 -4 10 -10z m-3890 -270 c0 -5 -4 -10 -10 -10 -5 0 -10 5 -10 10 0 6 5 10
10 10 6 0 10 -4 10 -10z m4580 -30 c0 -5 -5 -10 -11 -10 -5 0 -7 5 -4 10 3 6
8 10 11 10 2 0 4 -4 4 -10z m-4670 -550 c0 -5 -4 -10 -10 -10 -5 0 -10 5 -10
10 0 6 5 10 10 10 6 0 10 -4 10 -10z m50 -4 c0 -3 -4 -8 -10 -11 -5 -3 -10 -1
-10 4 0 6 5 11 10 11 6 0 10 -2 10 -4z m4060 -36 c0 -5 -4 -10 -10 -10 -5 0
-10 5 -10 10 0 6 5 10 10 10 6 0 10 -4 10 -10z m-4043 -606 c-3 -3 -12 -4 -19
-1 -8 3 -5 6 6 6 11 1 17 -2 13 -5z m683 -8 c0 -3 -4 -8 -10 -11 -5 -3 -10 -1
-10 4 0 6 5 11 10 11 6 0 10 -2 10 -4z m3357 -2 c-3 -3 -12 -4 -19 -1 -8 3 -5
6 6 6 11 1 17 -2 13 -5z m563 -14 c0 -5 -5 -10 -11 -10 -5 0 -7 5 -4 10 3 6 8
10 11 10 2 0 4 -4 4 -10z m-4143 -6 c-3 -3 -12 -4 -19 -1 -8 3 -5 6 6 6 11 1
17 -2 13 -5z m-497 -14 c0 -5 -2 -10 -4 -10 -3 0 -8 5 -11 10 -3 6 -1 10 4 10
6 0 11 -4 11 -10z m887 4 c-3 -3 -12 -4 -19 -1 -8 3 -5 6 6 6 11 1 17 -2 13
-5z m33 -14 c0 -5 -5 -10 -11 -10 -5 0 -7 5 -4 10 3 6 8 10 11 10 2 0 4 -4 4
-10z m-410 -10 c0 -5 -8 -10 -17 -10 -15 0 -16 2 -3 10 19 12 20 12 20 0z
m-160 -20 c0 -5 -5 -10 -11 -10 -5 0 -7 5 -4 10 3 6 8 10 11 10 2 0 4 -4 4
-10z m3535 0 c3 -5 1 -10 -4 -10 -6 0 -11 5 -11 10 0 6 2 10 4 10 3 0 8 -4 11
-10z m192 -16 c-3 -3 -12 -4 -19 -1 -8 3 -5 6 6 6 11 1 17 -2 13 -5z m-3262
-24 c61 -11 146 -29 190 -41 44 -12 91 -24 105 -26 14 -3 30 -9 35 -13 6 -4
28 -13 50 -20 22 -7 58 -21 80 -31 22 -10 69 -30 105 -44 56 -23 126 -59 300
-151 19 -11 37 -22 40 -25 3 -3 34 -23 70 -43 63 -37 245 -152 265 -169 6 -4
66 -48 133 -98 101 -73 126 -88 138 -78 8 6 17 9 21 6 3 -4 -2 -9 -11 -13 -9
-3 -16 -12 -16 -19 0 -11 -39 -41 -90 -67 -8 -5 -55 -35 -105 -68 -49 -32
-121 -78 -160 -101 -38 -23 -73 -47 -76 -52 -4 -5 -37 12 -74 39 -36 27 -88
62 -113 79 -26 16 -48 33 -50 37 -2 4 -8 8 -12 8 -5 0 -28 13 -52 29 -156 103
-537 281 -603 281 -8 0 -23 4 -33 9 -43 23 -193 43 -317 43 -177 0 -275 -28
-335 -96 -40 -46 -59 -83 -70 -132 -12 -53 -2 -177 13 -167 6 4 7 1 2 -6 -4
-8 5 -37 21 -69 37 -76 149 -185 250 -244 91 -53 252 -111 364 -130 95 -16
437 -15 500 1 25 7 61 16 80 21 19 4 44 11 55 13 28 7 176 55 200 65 90 38
290 147 417 227 84 53 162 102 173 108 11 7 36 24 56 40 20 15 39 27 42 27 3
0 48 30 101 68 52 37 138 96 191 132 53 36 120 82 148 102 132 95 305 208 318
208 5 0 9 4 9 9 0 5 10 13 23 17 12 4 24 9 27 13 3 3 25 17 50 30 25 14 47 27
50 30 3 3 55 30 115 59 61 30 118 58 127 63 10 5 23 9 30 9 7 1 31 9 53 20 22
11 46 19 53 20 7 0 20 4 30 9 26 14 122 41 143 41 11 0 27 4 37 10 31 18 252
35 362 28 355 -22 620 -168 748 -411 63 -118 92 -242 92 -388 0 -108 -3 -129
-37 -249 -80 -286 -313 -556 -608 -702 -110 -55 -175 -77 -340 -114 -192 -44
-461 -44 -680 0 -163 33 -342 83 -369 105 -6 4 -23 11 -38 15 -45 10 -231 98
-309 145 -14 9 -45 27 -67 41 -23 14 -40 29 -39 34 3 10 91 72 257 183 131 87
130 86 155 106 25 19 51 22 60 8 11 -19 200 -103 300 -133 106 -33 133 -39
220 -49 330 -39 655 53 822 234 59 64 90 116 107 185 37 142 6 275 -84 356
-75 67 -116 80 -270 79 -142 0 -192 -9 -360 -68 -78 -27 -100 -36 -185 -78
-106 -51 -379 -208 -395 -226 -3 -3 -63 -45 -135 -93 -71 -48 -156 -105 -188
-127 -31 -23 -61 -41 -66 -41 -5 0 -11 -4 -13 -9 -1 -5 -36 -30 -76 -57 -127
-85 -147 -98 -187 -130 -22 -17 -47 -34 -55 -37 -8 -4 -27 -15 -41 -25 -22
-15 -78 -49 -154 -95 -11 -7 -22 -14 -25 -17 -8 -8 -43 -29 -75 -44 -16 -8
-52 -29 -80 -45 -44 -26 -84 -47 -160 -81 -71 -32 -244 -94 -310 -111 -118
-31 -407 -72 -500 -71 -150 2 -379 19 -410 31 -11 5 -54 16 -95 26 -165 39
-210 55 -364 131 -126 62 -230 136 -327 231 -43 42 -82 72 -88 69 -7 -5 -9 -1
-5 9 4 9 -2 26 -12 38 -31 35 -64 85 -64 96 0 5 -3 11 -7 13 -16 6 -70 125
-99 213 -27 85 -29 99 -29 260 0 148 3 179 23 241 60 190 178 347 329 439 40
25 76 45 79 45 3 0 20 6 37 14 55 25 119 43 197 56 41 6 82 13 90 15 58 11
278 2 375 -15z m2665 -100 c0 -5 -5 -10 -11 -10 -5 0 -7 5 -4 10 3 6 8 10 11
10 2 0 4 -4 4 -10z m-3546 -24 c-10 -8 -21 -12 -24 -10 -5 6 21 24 34 24 6 0
1 -6 -10 -14z m3429 -1 c-3 -9 -8 -14 -10 -11 -3 3 -2 9 2 15 9 16 15 13 8 -4z
m57 -45 c0 -5 -5 -10 -11 -10 -5 0 -7 5 -4 10 3 6 8 10 11 10 2 0 4 -4 4 -10z
m1535 -30 c3 -5 1 -10 -4 -10 -6 0 -11 5 -11 10 0 6 2 10 4 10 3 0 8 -4 11
-10z m-3335 -50 c0 -5 -4 -10 -10 -10 -5 0 -10 5 -10 10 0 6 5 10 10 10 6 0
10 -4 10 -10z m1620 0 c0 -5 -4 -10 -10 -10 -5 0 -10 5 -10 10 0 6 5 10 10 10
6 0 10 -4 10 -10z m-3470 -10 c0 -5 -5 -10 -11 -10 -5 0 -7 5 -4 10 3 6 8 10
11 10 2 0 4 -4 4 -10z m15 -40 c-3 -5 -12 -10 -18 -10 -7 0 -6 4 3 10 19 12
23 12 15 0z m-115 -100 c0 -5 -2 -10 -4 -10 -3 0 -8 5 -11 10 -3 6 -1 10 4 10
6 0 11 -4 11 -10z m4290 -240 c0 -5 -4 -10 -10 -10 -5 0 -10 5 -10 10 0 6 5
10 10 10 6 0 10 -4 10 -10z m-3195 -15 c111 -19 252 -62 370 -114 110 -49 239
-116 328 -170 59 -36 120 -73 135 -81 14 -8 32 -20 39 -26 6 -6 32 -24 57 -40
25 -16 46 -32 46 -36 0 -5 -79 -40 -100 -44 -3 0 -18 -6 -33 -12 -16 -7 -33
-12 -38 -12 -5 0 -17 -4 -27 -9 -58 -31 -358 -75 -467 -68 -110 7 -268 28
-280 37 -5 4 -23 10 -40 14 -54 13 -199 88 -258 134 -141 111 -189 292 -99
381 58 58 193 75 367 46z m3518 -30 c101 -30 146 -92 147 -196 0 -94 -75 -217
-175 -287 -28 -20 -163 -82 -177 -82 -9 0 -19 -4 -22 -9 -3 -4 -29 -11 -58
-15 -29 -4 -66 -9 -83 -12 -74 -12 -234 -12 -300 1 -116 24 -209 47 -219 56
-6 5 -17 9 -25 9 -14 0 -181 78 -181 85 0 9 129 98 248 170 10 6 30 19 45 29
50 34 184 103 302 156 39 17 77 35 86 40 9 5 34 12 55 16 22 3 44 9 49 13 22
13 153 39 205 40 30 0 77 -6 103 -14z m-3993 -15 c0 -5 -4 -10 -10 -10 -5 0
-10 5 -10 10 0 6 5 10 10 10 6 0 10 -4 10 -10z m2090 -20 c0 -5 -4 -10 -10
-10 -5 0 -10 5 -10 10 0 6 5 10 10 10 6 0 10 -4 10 -10z m1450 0 c0 -5 -4 -10
-10 -10 -5 0 -10 5 -10 10 0 6 5 10 10 10 6 0 10 -4 10 -10z m-2440 -114 c0
-3 -4 -8 -10 -11 -5 -3 -10 -1 -10 4 0 6 5 11 10 11 6 0 10 -2 10 -4z m-1120
-16 c0 -5 -5 -10 -11 -10 -5 0 -7 5 -4 10 3 6 8 10 11 10 2 0 4 -4 4 -10z
m2977 -212 c-3 -8 -6 -5 -6 6 -1 11 2 17 5 13 3 -3 4 -12 1 -19z m-2112 -228
c-3 -5 -12 -10 -18 -10 -7 0 -6 4 3 10 19 12 23 12 15 0z m-95 -30 c0 -5 -2
-10 -4 -10 -3 0 -8 5 -11 10 -3 6 -1 10 4 10 6 0 11 -4 11 -10z m2297 4 c-3
-3 -12 -4 -19 -1 -8 3 -5 6 6 6 11 1 17 -2 13 -5z m513 -18 c0 -3 -4 -8 -10
-11 -5 -3 -10 -1 -10 4 0 6 5 11 10 11 6 0 10 -2 10 -4z m-220 -16 c0 -5 -4
-10 -10 -10 -5 0 -10 5 -10 10 0 6 5 10 10 10 6 0 10 -4 10 -10z m458 -15 c-3
-3 -9 2 -12 12 -6 14 -5 15 5 6 7 -7 10 -15 7 -18z m-248 -25 c0 -5 -5 -10
-11 -10 -5 0 -7 5 -4 10 3 6 8 10 11 10 2 0 4 -4 4 -10z m90 0 c0 -5 -7 -10
-16 -10 -8 0 -12 5 -9 10 3 6 10 10 16 10 5 0 9 -4 9 -10z m-4000 -150 c0 -5
-7 -10 -16 -10 -8 0 -12 5 -9 10 3 6 10 10 16 10 5 0 9 -4 9 -10z m2330 -140
c0 -5 -4 -10 -10 -10 -5 0 -10 5 -10 10 0 6 5 10 10 10 6 0 10 -4 10 -10z
m2380 -10 c0 -5 -4 -10 -10 -10 -5 0 -10 5 -10 10 0 6 5 10 10 10 6 0 10 -4
10 -10z m-1820 -15 c-7 -9 -15 -13 -19 -10 -3 3 1 10 9 15 21 14 24 12 10 -5z
m-1040 -156 c0 -6 -4 -7 -10 -4 -5 3 -10 11 -10 16 0 6 5 7 10 4 6 -3 10 -11
10 -16z m1227 15 c-3 -3 -12 -4 -19 -1 -8 3 -5 6 6 6 11 1 17 -2 13 -5z m1210
-30 c-3 -3 -12 -4 -19 -1 -8 3 -5 6 6 6 11 1 17 -2 13 -5z m-140 -30 c-3 -3
-12 -4 -19 -1 -8 3 -5 6 6 6 11 1 17 -2 13 -5z m-3397 -14 c0 -5 -2 -10 -4
-10 -3 0 -8 5 -11 10 -3 6 -1 10 4 10 6 0 11 -4 11 -10z m40 0 c0 -5 -5 -10
-11 -10 -5 0 -7 5 -4 10 3 6 8 10 11 10 2 0 4 -4 4 -10z m2650 0 c0 -5 -5 -10
-11 -10 -5 0 -7 5 -4 10 3 6 8 10 11 10 2 0 4 -4 4 -10z m-2453 -16 c-3 -3
-12 -4 -19 -1 -8 3 -5 6 6 6 11 1 17 -2 13 -5z m3347 -9 c-4 -8 -11 -12 -16
-9 -6 4 -5 10 3 15 19 12 19 11 13 -6z m-3074 -65 c0 -5 -5 -10 -11 -10 -5 0
-7 5 -4 10 3 6 8 10 11 10 2 0 4 -4 4 -10z m30 0 c0 -5 -5 -10 -11 -10 -5 0
-7 5 -4 10 3 6 8 10 11 10 2 0 4 -4 4 -10z m50 6 c0 -3 -4 -8 -10 -11 -5 -3
-10 -1 -10 4 0 6 5 11 10 11 6 0 10 -2 10 -4z"/>
<path d="M4653 7523 c-68 -17 -138 -56 -186 -102 -42 -40 -112 -155 -103 -170
4 -5 1 -11 -5 -13 -6 -2 -13 -35 -16 -73 -6 -85 6 -106 61 -108 44 -1 75 30
76 75 0 77 60 179 132 224 81 51 224 50 311 -3 71 -42 137 -166 137 -255 0
-39 32 -68 74 -68 66 0 83 67 47 190 -26 88 -44 120 -101 183 -52 57 -121 97
-210 123 -45 13 -164 11 -217 -3z m-213 -203 c0 -5 -7 -10 -16 -10 -8 0 -12 5
-9 10 3 6 10 10 16 10 5 0 9 -4 9 -10z m740 -210 c0 -5 -4 -10 -10 -10 -5 0
-10 5 -10 10 0 6 5 10 10 10 6 0 10 -4 10 -10z"/>
<path d="M2625 7519 c-120 -12 -245 -81 -312 -172 -124 -168 -136 -357 -23
-357 39 0 55 25 70 110 21 125 80 209 180 258 48 23 67 27 145 27 85 -1 93 -3
143 -35 59 -39 107 -102 123 -165 19 -70 29 -90 50 -103 28 -18 74 -6 93 23
18 27 21 81 6 90 -5 3 -10 13 -10 21 0 22 -39 103 -68 144 -90 123 -224 177
-397 159z m-205 -109 c0 -5 -4 -10 -10 -10 -5 0 -10 5 -10 10 0 6 5 10 10 10
6 0 10 -4 10 -10z m85 -10 c3 -5 1 -10 -4 -10 -6 0 -11 5 -11 10 0 6 2 10 4
10 3 0 8 -4 11 -10z m272 -6 c-3 -3 -12 -4 -19 -1 -8 3 -5 6 6 6 11 1 17 -2
13 -5z m298 -194 c3 -5 1 -10 -4 -10 -6 0 -11 5 -11 10 0 6 2 10 4 10 3 0 8
-4 11 -10z"/>
<path d="M3236 6575 c-23 -35 -17 -75 25 -154 57 -108 154 -183 304 -234 81
-28 272 -30 360 -4 180 53 327 183 356 315 7 33 7 57 0 75 -9 24 -16 27 -55
27 l-44 0 -33 -67 c-78 -157 -184 -221 -381 -230 -116 -6 -189 9 -258 53 -51
32 -115 103 -134 149 -37 88 -39 90 -82 93 -35 3 -44 -1 -58 -23z m974 -181
c0 -8 -5 -12 -10 -9 -6 4 -8 11 -5 16 9 14 15 11 15 -7z m-130 -84 c0 -5 -4
-10 -10 -10 -5 0 -10 5 -10 10 0 6 5 10 10 10 6 0 10 -4 10 -10z m-490 -50 c0
-5 -5 -10 -11 -10 -5 0 -7 5 -4 10 3 6 8 10 11 10 2 0 4 -4 4 -10z"/>
<path d="M1143 9248 c-42 -8 -61 -18 -102 -59 -27 -27 -55 -65 -62 -84 -7 -19
-17 -35 -21 -35 -5 0 -27 18 -49 39 -143 137 -360 92 -414 -86 -42 -138 7
-293 135 -422 75 -77 140 -121 272 -188 192 -97 188 -97 265 -2 153 187 253
371 253 468 0 15 3 31 7 35 9 9 5 99 -8 165 -10 47 -19 63 -65 107 -39 38 -64
55 -91 59 -21 4 -45 8 -53 10 -8 1 -38 -2 -67 -7z m100 -129 c49 -26 66 -60
67 -132 0 -147 -71 -300 -219 -469 -18 -21 -39 -38 -47 -38 -43 0 -252 136
-329 214 -78 79 -108 140 -109 221 -2 102 50 158 137 147 49 -6 130 -82 173
-162 28 -52 31 -55 68 -55 45 0 49 6 67 90 31 150 111 226 192 184z m-213 -49
c0 -5 -5 -10 -11 -10 -5 0 -7 5 -4 10 3 6 8 10 11 10 2 0 4 -4 4 -10z m-490
-164 c0 -11 -19 -15 -25 -6 -3 5 1 10 9 10 9 0 16 -2 16 -4z"/>
</g>
</svg>
