<?xml version="1.0" standalone="no"?>
<!DOCTYPE svg PUBLIC "-//W3C//DTD SVG 20010904//EN"
 "http://www.w3.org/TR/2001/REC-SVG-20010904/DTD/svg10.dtd">
<svg version="1.0" xmlns="http://www.w3.org/2000/svg"
 width="830.000000pt" height="952.000000pt" viewBox="0 0 830.000000 952.000000"
 preserveAspectRatio="xMidYMid meet">

<g transform="translate(0.000000,952.000000) scale(0.100000,-0.100000)"
fill="#000000" stroke="none">
<path d="M6167 8456 c-10 -8 -31 -54 -48 -102 -54 -159 -91 -216 -184 -282
-24 -17 -124 -63 -170 -78 -79 -25 -97 -40 -93 -77 2 -26 11 -36 43 -54 22
-12 46 -22 53 -22 24 -2 107 -43 174 -88 82 -54 118 -106 173 -251 31 -82 47
-110 67 -122 25 -14 29 -13 53 10 14 13 31 44 37 67 6 24 14 46 19 49 5 3 9
13 9 22 0 68 122 220 207 261 26 12 56 26 65 32 10 5 23 9 30 9 7 1 31 9 53
20 22 11 45 19 51 20 19 0 44 35 44 61 0 14 -10 33 -22 44 -13 10 -23 18 -23
16 0 -3 -8 0 -90 24 -100 31 -162 64 -214 116 -47 48 -101 139 -101 172 0 9
-4 18 -9 21 -5 3 -13 25 -19 49 -13 51 -47 97 -70 97 -9 0 -25 -7 -35 -14z"/>
<path d="M1240 8190 c-8 -5 -51 -26 -95 -47 -44 -21 -81 -41 -83 -45 -2 -5 -8
-8 -12 -8 -9 0 -126 -67 -145 -82 -5 -5 -32 -25 -60 -45 -53 -40 -186 -171
-222 -219 -18 -25 -53 -86 -84 -144 -42 -80 -69 -181 -75 -283 -9 -145 15
-259 85 -397 40 -80 45 -113 21 -145 -4 -5 -11 -28 -15 -50 -4 -22 -11 -45
-17 -52 -5 -6 -12 -45 -15 -85 -5 -65 -3 -75 15 -91 24 -21 85 -25 107 -7 14
12 29 51 60 155 37 125 46 145 74 152 14 3 31 9 36 13 6 4 21 11 34 15 28 8
134 69 174 99 48 37 148 138 187 190 21 28 55 85 75 126 20 41 41 83 46 92 8
16 17 46 41 148 14 60 14 405 0 500 -25 163 -28 173 -58 197 -31 24 -49 27
-74 13z m-20 -356 c15 -160 6 -280 -30 -399 -16 -53 -61 -152 -82 -180 -62
-82 -94 -117 -139 -156 -61 -51 -128 -94 -135 -86 -3 3 4 22 15 43 12 21 21
44 21 51 0 7 5 13 10 13 6 0 10 5 10 11 0 6 16 45 36 87 32 68 55 115 113 227
9 16 20 33 25 36 4 4 10 27 13 52 4 36 1 49 -16 66 -27 27 -101 29 -123 4 -22
-26 -195 -373 -249 -500 -8 -18 -17 -33 -20 -33 -17 0 -39 110 -39 199 0 146
42 263 138 386 94 121 172 182 402 315 33 19 37 9 50 -136z"/>
<path d="M3615 7935 c-5 -3 -64 -11 -130 -19 -152 -19 -235 -34 -257 -46 -10
-6 -24 -10 -33 -10 -8 0 -34 -6 -57 -14 -137 -43 -181 -59 -206 -72 -15 -7
-32 -14 -37 -14 -18 0 -249 -121 -310 -163 -124 -84 -135 -92 -241 -187 -219
-195 -404 -471 -499 -745 -9 -27 -21 -59 -25 -70 -24 -55 -59 -251 -72 -393
-20 -224 23 -528 103 -717 34 -81 52 -123 62 -145 19 -44 110 -195 119 -198 4
-2 8 -8 8 -14 0 -6 17 -32 37 -57 21 -25 47 -57 58 -71 51 -63 170 -180 220
-216 30 -21 55 -42 55 -46 0 -4 -19 -24 -42 -45 -105 -93 -198 -194 -268 -290
-19 -26 -37 -50 -41 -53 -22 -19 -131 -223 -182 -340 -27 -63 -92 -265 -108
-338 -30 -134 -41 -193 -50 -252 -6 -36 -15 -81 -20 -100 -9 -37 -28 -221 -38
-382 -3 -53 -8 -98 -11 -100 -3 -3 -23 -12 -45 -22 -76 -33 -90 -40 -159 -80
-73 -42 -183 -144 -209 -192 -75 -140 -91 -202 -85 -328 6 -125 35 -194 115
-278 31 -31 52 -61 49 -67 -4 -6 -16 -43 -27 -81 -40 -147 -18 -326 61 -486
154 -309 489 -481 1070 -546 151 -17 655 -17 774 0 l88 13 82 -55 c293 -194
522 -229 666 -99 48 43 100 129 100 166 0 44 10 47 95 37 225 -28 637 -40 875
-25 263 16 555 73 705 136 153 64 233 115 328 207 101 99 175 219 214 347 26
86 25 278 -1 357 l-20 56 57 62 c89 96 102 131 102 280 0 105 -4 134 -22 180
-36 92 -53 119 -117 188 -76 82 -165 142 -271 183 -106 42 -105 41 -105 78 0
19 -5 71 -10 115 -6 45 -15 126 -20 181 -11 111 -32 254 -53 360 -8 39 -20 99
-27 135 -7 36 -16 69 -21 75 -5 5 -9 16 -9 25 0 20 -38 149 -51 172 -5 10 -9
23 -9 29 0 21 -129 292 -142 297 -5 2 -8 8 -8 12 0 13 -55 94 -126 185 -57 74
-176 195 -251 257 -18 15 -33 31 -33 37 0 5 15 20 33 32 51 36 204 187 261
259 185 230 308 506 347 770 33 233 36 287 18 434 -24 203 -53 338 -90 421 -4
11 -18 45 -29 75 -20 54 -80 180 -90 190 -3 3 -16 25 -29 50 -27 50 -73 118
-111 166 -14 18 -36 47 -50 65 -29 38 -171 184 -215 220 -182 150 -387 271
-590 349 -33 12 -67 26 -75 30 -9 4 -31 11 -50 15 -19 4 -41 11 -50 16 -8 4
-37 13 -65 19 -27 6 -79 18 -115 26 -135 31 -282 46 -480 49 -113 3 -209 2
-215 0z m374 -176 c216 -27 329 -46 353 -59 10 -6 24 -10 33 -10 22 0 190 -56
275 -92 137 -58 328 -166 398 -223 221 -183 325 -298 445 -498 26 -43 47 -80
47 -83 0 -3 6 -20 14 -37 109 -241 145 -402 145 -657 0 -172 -15 -293 -54
-430 -9 -30 -20 -63 -26 -72 -5 -10 -9 -23 -9 -28 0 -14 -31 -85 -72 -165 -91
-180 -267 -387 -447 -525 -101 -78 -126 -109 -117 -143 7 -31 56 -83 116 -122
62 -42 202 -177 268 -259 48 -59 182 -267 182 -281 0 -3 14 -33 30 -67 17 -34
30 -66 30 -72 0 -6 6 -23 14 -38 8 -15 17 -41 21 -59 4 -19 11 -40 16 -49 9
-17 23 -70 46 -175 40 -182 66 -375 88 -635 19 -235 21 -245 62 -280 18 -17
42 -30 52 -30 26 0 168 -58 215 -88 69 -43 135 -112 167 -176 43 -84 52 -209
20 -278 -41 -92 -170 -172 -293 -182 -90 -8 -242 13 -313 43 -102 44 -141 68
-198 125 -62 62 -117 153 -117 192 0 11 -4 24 -9 29 -9 10 -17 49 -46 240 -7
50 -16 99 -19 110 -3 11 -11 70 -17 130 -43 430 -61 564 -113 840 -9 44 -21
111 -28 148 -18 108 -72 151 -134 110 -47 -30 -50 -74 -15 -228 17 -72 49
-269 80 -495 6 -41 16 -124 21 -185 6 -60 15 -144 20 -185 16 -127 15 -128
-27 -135 -21 -3 -46 -10 -55 -16 -10 -5 -25 -9 -33 -9 -16 0 -212 -63 -250
-80 -11 -5 -40 -18 -65 -28 -122 -52 -163 -71 -255 -118 -128 -66 -205 -107
-255 -139 -22 -14 -42 -25 -44 -25 -6 0 -129 -72 -136 -80 -3 -3 -25 -16 -50
-29 -25 -14 -61 -35 -80 -48 -33 -22 -35 -22 -55 -4 -11 10 -56 42 -100 71
-44 29 -91 60 -105 69 -14 10 -32 20 -40 24 -8 4 -37 21 -65 37 -52 32 -301
155 -370 184 -22 9 -48 21 -57 26 -10 6 -23 10 -29 10 -6 0 -25 6 -42 14 -73
33 -340 116 -372 116 -12 0 -25 3 -29 8 -4 4 -33 12 -64 17 -56 10 -57 11 -60
45 -2 19 1 58 7 85 5 28 15 91 21 140 33 271 96 619 141 780 33 119 34 136 9
168 -16 21 -30 27 -59 27 -37 0 -81 -22 -81 -42 0 -5 -7 -24 -14 -41 -14 -31
-19 -51 -52 -217 -40 -203 -78 -422 -119 -695 -37 -249 -44 -295 -60 -380 -9
-49 -20 -111 -25 -138 -13 -73 -52 -184 -75 -216 -43 -61 -129 -132 -201 -166
-43 -20 -88 -41 -99 -46 -33 -16 -125 -31 -215 -36 -179 -9 -272 48 -325 199
-16 47 -20 154 -6 162 4 3 11 21 14 40 7 43 66 137 115 183 50 47 136 96 215
123 147 50 155 65 168 309 5 97 11 190 15 206 3 17 12 75 20 130 21 152 36
226 84 415 6 25 15 52 19 60 5 9 12 30 16 49 4 18 13 44 21 59 8 15 14 33 14
40 0 7 4 20 9 30 5 9 29 57 53 105 62 128 62 127 70 127 5 0 8 5 8 11 0 6 8
21 18 34 9 12 24 33 32 45 75 110 232 274 333 345 31 22 64 55 74 73 17 32 17
34 -2 70 -11 20 -49 59 -85 86 -91 70 -298 279 -345 349 -77 114 -175 298
-175 329 0 8 -3 18 -7 22 -33 33 -102 386 -103 524 0 35 4 93 10 130 5 37 14
96 19 132 13 88 51 240 71 285 5 11 18 43 30 70 41 95 53 119 108 209 197 326
450 539 842 709 129 56 321 106 495 128 44 6 105 14 135 18 83 12 273 12 369
0z m-1404 -5262 c33 -9 85 -23 115 -32 30 -9 73 -21 95 -27 22 -6 44 -15 50
-19 5 -5 16 -9 25 -9 8 0 27 -6 42 -14 15 -8 40 -17 57 -21 17 -4 33 -11 36
-16 4 -5 13 -9 21 -9 46 0 550 -261 562 -292 2 -4 9 -8 16 -8 19 0 49 -37 41
-50 -4 -6 -59 -36 -123 -66 -64 -31 -125 -60 -134 -65 -10 -5 -48 -14 -85 -20
-81 -13 -202 3 -493 66 -171 37 -200 30 -200 -50 0 -75 29 -94 198 -130 227
-48 231 -49 380 -91 188 -53 368 -130 460 -198 42 -30 160 -150 187 -188 76
-109 135 -271 135 -373 0 -111 -53 -165 -163 -165 -109 0 -231 54 -410 182
l-57 41 -158 -13 c-226 -19 -490 -24 -617 -11 -305 31 -437 49 -451 63 -4 5
-17 8 -29 8 -21 0 -126 30 -170 49 -109 45 -201 101 -273 167 -44 39 -142 164
-142 180 0 5 -7 23 -16 39 -26 50 -38 115 -38 215 -1 107 15 157 49 152 11 -2
68 -6 127 -9 82 -4 123 -2 180 12 166 40 301 97 387 165 84 66 169 197 196
300 3 14 10 34 15 45 11 24 30 112 37 173 l5 44 42 -5 c22 -3 68 -12 101 -20z
m2578 -19 c6 -48 29 -152 41 -183 40 -107 55 -139 95 -200 61 -94 75 -109 151
-164 86 -64 163 -99 290 -133 93 -26 369 -32 409 -9 38 21 46 2 46 -117 0
-141 -22 -207 -104 -316 -55 -73 -93 -111 -167 -168 -57 -43 -178 -108 -202
-108 -7 0 -20 -4 -30 -9 -43 -24 -153 -49 -302 -72 -36 -5 -96 -15 -135 -22
-96 -17 -823 -17 -920 0 -38 7 -98 16 -133 20 l-63 8 -33 95 c-54 157 -136
288 -253 402 -61 58 -187 148 -210 148 -7 0 -13 5 -13 10 0 6 -6 10 -12 10 -7
1 -31 9 -53 20 -22 11 -46 19 -52 20 -31 0 -6 19 85 63 110 53 181 92 306 166
48 28 91 51 96 51 6 0 10 4 10 9 0 5 8 11 18 14 9 4 37 18 62 33 175 103 223
130 300 171 19 10 37 20 40 23 10 10 157 80 168 80 7 0 12 5 12 10 0 6 5 10
11 10 5 0 31 9 57 21 26 11 63 27 82 35 19 9 44 19 55 24 24 10 190 64 260 84
79 22 82 21 88 -26z"/>
<path d="M2640 6357 c-37 -19 -52 -55 -45 -107 13 -98 97 -221 177 -262 97
-49 113 -53 203 -53 81 0 97 4 155 33 114 56 187 144 209 254 14 67 7 102 -26
128 -34 27 -65 25 -102 -6 -24 -20 -32 -36 -37 -76 -9 -63 -54 -118 -122 -148
-61 -27 -108 -25 -173 8 -62 31 -104 86 -114 148 -10 68 -72 108 -125 81z"/>
<path d="M4299 6341 c-21 -21 -29 -39 -29 -63 1 -37 32 -134 49 -151 6 -6 11
-16 11 -22 0 -15 89 -99 125 -118 83 -44 111 -52 190 -52 78 0 195 28 195 47
0 4 6 8 14 8 23 0 110 94 140 151 37 71 47 164 20 196 -11 13 -34 26 -51 29
-28 6 -38 1 -68 -29 -21 -21 -35 -45 -35 -59 0 -28 -24 -83 -49 -112 -25 -29
-112 -66 -157 -66 -42 0 -130 38 -157 68 -27 31 -57 92 -57 118 0 34 -51 84
-85 84 -16 0 -38 -12 -56 -29z"/>
<path d="M3347 5712 c-42 -44 -37 -82 20 -143 73 -78 174 -141 280 -175 79
-26 266 -26 338 -1 135 47 286 152 319 222 45 95 -58 170 -130 94 -37 -41
-144 -119 -161 -119 -7 0 -13 -4 -13 -9 0 -6 -20 -13 -45 -17 -25 -3 -48 -10
-51 -15 -3 -5 -38 -9 -77 -9 -119 1 -228 46 -318 133 -78 76 -118 86 -162 39z"/>
<path d="M6813 6722 c-6 -4 -19 -30 -28 -57 -30 -87 -52 -129 -92 -168 -34
-34 -58 -48 -153 -89 -45 -19 -54 -24 -63 -40 -17 -25 -1 -45 50 -63 151 -54
201 -103 258 -258 10 -26 27 -54 39 -62 18 -13 22 -12 43 7 13 12 23 26 23 32
0 6 6 23 14 37 7 14 16 38 20 53 8 31 17 45 62 90 39 39 61 56 71 56 4 0 20 6
35 14 14 8 42 19 61 25 70 23 85 70 30 92 -15 7 -44 18 -63 26 -124 51 -151
79 -210 218 -12 28 -26 60 -32 73 -11 22 -42 29 -65 14z"/>
<path d="M548 5178 c-23 -32 -23 -38 -23 -274 0 -165 4 -245 11 -255 7 -8 15
-30 19 -49 8 -39 9 -40 61 -130 105 -181 286 -301 509 -338 36 -6 43 -13 80
-75 56 -92 74 -109 121 -109 29 0 44 6 62 28 32 37 26 71 -28 160 -38 62 -41
71 -32 99 45 126 46 393 2 473 -5 9 -19 39 -31 66 -25 59 -81 136 -135 188
-35 33 -175 128 -188 128 -3 0 -29 11 -58 25 -83 39 -265 95 -308 95 -32 0
-42 -5 -62 -32z m197 -178 c3 -5 14 -10 23 -10 9 -1 35 -9 57 -20 22 -11 43
-19 47 -20 23 -1 142 -84 193 -135 88 -87 135 -198 135 -317 0 -64 -17 -78
-37 -30 -22 51 -90 162 -108 174 -5 4 -27 8 -48 8 -44 0 -87 -38 -87 -76 0
-13 27 -68 60 -122 53 -87 69 -122 57 -122 -2 0 -33 14 -68 32 -79 39 -194
152 -228 223 -12 28 -27 58 -32 67 -19 37 -39 208 -32 282 6 75 6 76 34 76 15
0 31 -4 34 -10z"/>
</g>
</svg>
