<?xml version="1.0" standalone="no"?>
<!DOCTYPE svg PUBLIC "-//W3C//DTD SVG 20010904//EN"
 "http://www.w3.org/TR/2001/REC-SVG-20010904/DTD/svg10.dtd">
<svg version="1.0" xmlns="http://www.w3.org/2000/svg"
 width="764.000000pt" height="1004.000000pt" viewBox="0 0 764.000000 1004.000000"
 preserveAspectRatio="xMidYMid meet">

<g transform="translate(0.000000,1004.000000) scale(0.100000,-0.100000)"
fill="#000000" stroke="none">
<path d="M3575 9310 c-55 -7 -165 -23 -240 -35 -51 -8 -128 -25 -159 -35 -17
-5 -56 -16 -86 -24 -141 -39 -206 -59 -214 -67 -6 -5 -16 -9 -24 -9 -7 0 -34
-9 -60 -21 -26 -11 -56 -24 -67 -29 -178 -74 -430 -219 -567 -325 -14 -11 -41
-31 -60 -45 -63 -47 -231 -215 -325 -325 -181 -211 -356 -505 -423 -710 -13
-38 -26 -74 -30 -80 -6 -9 -24 -70 -55 -190 -55 -208 -70 -342 -70 -630 0
-255 7 -325 46 -495 25 -108 79 -282 90 -295 5 -5 9 -15 9 -22 0 -13 49 -125
78 -178 90 -164 138 -237 229 -347 111 -133 275 -292 356 -342 23 -14 22 -22
-9 -54 -45 -48 -139 -175 -185 -252 -59 -97 -160 -299 -189 -375 -12 -33 -26
-69 -31 -80 -14 -32 -68 -201 -80 -247 -45 -181 -72 -303 -80 -358 -5 -36 -11
-76 -15 -90 -38 -155 -54 -758 -25 -973 9 -70 14 -131 11 -135 -3 -4 -32 -29
-66 -54 -152 -116 -256 -272 -305 -459 -33 -123 -32 -353 0 -494 13 -55 27
-104 31 -110 4 -5 10 -22 14 -38 6 -24 22 -58 90 -194 6 -13 14 -23 19 -23 4
0 7 -5 7 -11 0 -32 178 -225 280 -304 153 -117 394 -240 550 -280 14 -3 34
-10 45 -15 11 -4 52 -15 90 -24 324 -71 706 -59 1010 31 89 27 241 81 288 102
25 12 49 21 53 21 12 0 219 105 222 112 2 5 8 8 14 8 6 0 55 27 110 60 54 33
103 60 108 60 5 0 36 -17 70 -38 121 -73 156 -93 245 -136 50 -24 140 -63 200
-86 61 -23 118 -46 127 -51 10 -5 24 -9 33 -9 8 0 34 -6 57 -14 40 -13 148
-37 291 -66 72 -14 428 -16 482 -2 22 6 67 13 100 17 33 4 65 10 70 15 6 4 28
11 50 14 45 8 167 48 235 77 275 118 473 289 611 524 50 85 99 193 99 217 0 8
4 18 9 24 10 10 24 73 42 189 18 115 -6 353 -46 460 -70 183 -228 374 -369
445 -16 8 -31 21 -33 28 -3 7 4 81 16 165 19 138 31 300 35 477 2 59 -16 329
-28 440 -11 100 -49 318 -66 380 -5 19 -19 76 -31 125 -18 76 -65 232 -86 285
-3 8 -16 43 -28 76 -73 201 -201 442 -297 557 l-40 48 29 22 c41 31 160 143
218 203 80 84 128 143 200 249 66 97 205 366 205 396 0 8 4 19 8 24 8 9 35 89
69 210 64 225 83 388 77 675 -4 217 -12 280 -63 512 -13 60 -40 148 -52 170
-5 10 -9 23 -9 29 0 6 -6 25 -14 42 -8 18 -23 57 -34 88 -55 152 -173 365
-306 554 -74 105 -309 353 -399 421 -29 21 -61 47 -72 58 -18 16 -132 96 -173
121 -9 6 -46 29 -82 53 -37 23 -71 42 -77 42 -6 0 -13 3 -15 8 -6 13 -278 142
-301 142 -9 0 -18 4 -22 9 -3 5 -19 12 -36 16 -17 4 -42 13 -57 21 -15 8 -36
14 -47 14 -12 0 -25 4 -30 9 -6 5 -30 14 -55 19 -25 6 -72 18 -105 27 -83 22
-222 51 -340 71 -110 19 -540 28 -650 14z m185 -20 c0 -5 -5 -10 -11 -10 -5 0
-7 5 -4 10 3 6 8 10 11 10 2 0 4 -4 4 -10z m-230 -70 c0 -5 -5 -10 -11 -10 -5
0 -7 5 -4 10 3 6 8 10 11 10 2 0 4 -4 4 -10z m354 -11 c-3 -5 -10 -7 -15 -3
-5 3 -7 10 -3 15 3 5 10 7 15 3 5 -3 7 -10 3 -15z m-414 -19 c-8 -5 -19 -10
-25 -10 -5 0 -3 5 5 10 8 5 20 10 25 10 6 0 3 -5 -5 -10z m635 -16 c124 -15
234 -32 280 -43 22 -5 74 -17 115 -26 41 -9 93 -22 115 -29 22 -8 65 -21 95
-31 30 -9 64 -21 75 -26 11 -4 45 -18 75 -29 70 -27 118 -47 152 -66 14 -7 33
-14 42 -14 9 0 16 -4 16 -8 0 -5 17 -16 38 -25 35 -15 85 -44 196 -112 78 -48
221 -157 293 -222 139 -127 223 -217 336 -363 117 -152 282 -471 336 -650 13
-41 26 -84 31 -95 4 -11 16 -56 25 -100 9 -44 21 -99 26 -123 40 -186 39 -608
-2 -814 -25 -130 -81 -320 -115 -395 -8 -17 -14 -34 -14 -37 0 -6 -66 -144
-80 -166 -5 -8 -31 -51 -57 -95 -39 -67 -122 -187 -143 -205 -3 -3 -34 -38
-70 -79 -60 -69 -174 -175 -282 -264 -45 -37 -46 -39 -36 -70 6 -18 37 -60 68
-94 69 -74 136 -183 220 -358 34 -71 66 -138 71 -147 5 -10 9 -23 9 -30 1 -7
9 -31 20 -53 11 -22 19 -48 20 -58 0 -9 4 -25 10 -35 20 -35 83 -266 106 -392
46 -249 56 -333 70 -550 15 -226 5 -446 -32 -713 -7 -52 -14 -55 -74 -36 -71
21 -255 49 -325 49 l-72 0 4 173 c5 167 -8 474 -27 667 -6 52 -12 115 -14 140
-8 97 -27 237 -36 270 -4 19 -18 89 -30 155 -38 212 -53 245 -113 245 -55 0
-57 -44 -12 -280 27 -146 45 -270 60 -423 8 -81 17 -153 21 -159 4 -6 10 -187
13 -402 l6 -391 -100 -17 c-183 -31 -312 -68 -429 -124 -28 -13 -53 -24 -56
-24 -12 0 -282 -149 -300 -165 -9 -8 -20 -15 -24 -15 -7 0 -85 -52 -306 -204
-47 -32 -104 -74 -127 -92 -23 -19 -44 -34 -47 -34 -6 0 -153 -105 -176 -125
-16 -15 -6 -21 -220 128 -77 54 -220 147 -300 197 -110 69 -285 168 -405 229
-62 32 -92 46 -210 97 -74 31 -193 74 -208 74 -9 0 -18 4 -21 9 -4 5 -25 12
-48 16 -23 4 -49 11 -58 16 -8 4 -42 13 -75 18 -33 6 -80 15 -105 21 -25 5
-69 9 -98 10 l-54 0 7 243 c13 462 87 1019 174 1297 15 47 14 53 -10 79 -17
18 -28 22 -51 17 -16 -3 -35 -11 -42 -18 -17 -18 -40 -93 -65 -218 -12 -58
-26 -118 -31 -135 -5 -16 -11 -55 -15 -85 -3 -30 -10 -73 -15 -95 -11 -42 -21
-133 -45 -385 -8 -85 -17 -173 -19 -195 -2 -22 -7 -139 -11 -260 -4 -121 -9
-223 -11 -227 -4 -6 -45 -11 -184 -24 -36 -3 -108 -17 -160 -31 -151 -40 -136
-42 -148 14 -34 158 -18 729 28 998 5 33 14 87 20 120 16 98 53 259 69 305 5
14 19 58 31 99 13 40 29 85 36 100 8 14 14 34 14 43 0 9 4 20 10 23 5 3 10 13
10 22 0 8 7 31 16 51 131 291 222 437 360 582 53 55 62 70 60 97 -1 22 -11 39
-32 55 -109 85 -233 202 -354 334 -120 131 -196 246 -281 424 -59 123 -69 146
-69 162 0 8 -4 18 -9 24 -4 5 -14 29 -20 54 -7 25 -19 70 -27 100 -50 187 -73
470 -56 693 14 173 21 238 33 297 6 25 16 74 23 110 19 88 36 152 45 170 5 9
12 31 16 50 4 19 11 41 16 50 5 8 18 38 29 65 188 446 492 807 917 1088 39 26
76 47 81 47 6 0 17 6 24 13 18 17 241 129 303 151 28 10 64 25 80 32 48 21
217 74 238 74 11 0 15 4 11 12 -5 7 -2 9 8 5 14 -5 78 6 118 20 8 3 24 7 35 8
38 4 120 16 174 27 126 24 478 31 626 12z m-880 -34 c3 -5 1 -10 -4 -10 -6 0
-11 5 -11 10 0 6 2 10 4 10 3 0 8 -4 11 -10z m-238 -46 c-3 -3 -12 -4 -19 -1
-8 3 -5 6 6 6 11 1 17 -2 13 -5z m1993 -44 c0 -5 -5 -10 -11 -10 -5 0 -7 5 -4
10 3 6 8 10 11 10 2 0 4 -4 4 -10z m-2283 -6 c-3 -3 -12 -4 -19 -1 -8 3 -5 6
6 6 11 1 17 -2 13 -5z m193 2 c0 -3 -4 -8 -10 -11 -5 -3 -10 -1 -10 4 0 6 5
11 10 11 6 0 10 -2 10 -4z m2005 -26 c3 -5 -1 -10 -10 -10 -9 0 -13 5 -10 10
3 6 8 10 10 10 2 0 7 -4 10 -10z m235 -120 c0 -5 -5 -10 -11 -10 -5 0 -7 5 -4
10 3 6 8 10 11 10 2 0 4 -4 4 -10z m410 -164 c0 -11 -19 -15 -25 -6 -3 5 1 10
9 10 9 0 16 -2 16 -4z m-4020 -876 c0 -5 -4 -10 -10 -10 -5 0 -10 5 -10 10 0
6 5 10 10 10 6 0 10 -4 10 -10z m-193 -636 c-3 -3 -12 -4 -19 -1 -8 3 -5 6 6
6 11 1 17 -2 13 -5z m-27 -344 c0 -5 -2 -10 -4 -10 -3 0 -8 5 -11 10 -3 6 -1
10 4 10 6 0 11 -4 11 -10z m5100 -560 c0 -5 -2 -10 -4 -10 -3 0 -8 5 -11 10
-3 6 -1 10 4 10 6 0 11 -4 11 -10z m-5020 -300 c0 -5 -2 -10 -4 -10 -3 0 -8 5
-11 10 -3 6 -1 10 4 10 6 0 11 -4 11 -10z m83 -77 c-7 -2 -19 -2 -25 0 -7 3
-2 5 12 5 14 0 19 -2 13 -5z m4702 -263 c-3 -5 -12 -10 -18 -10 -7 0 -6 4 3
10 19 12 23 12 15 0z m-4615 -14 c0 -3 -4 -8 -10 -11 -5 -3 -10 -1 -10 4 0 6
5 11 10 11 6 0 10 -2 10 -4z m4530 -90 c0 -3 -4 -8 -10 -11 -5 -3 -10 -1 -10
4 0 6 5 11 10 11 6 0 10 -2 10 -4z m-3980 -410 c0 -11 -19 -15 -25 -6 -3 5 1
10 9 10 9 0 16 -2 16 -4z m-250 -420 c0 -11 -19 -15 -25 -6 -3 5 1 10 9 10 9
0 16 -2 16 -4z m-90 -126 c0 -5 -4 -10 -10 -10 -5 0 -10 5 -10 10 0 6 5 10 10
10 6 0 10 -4 10 -10z m-130 -284 c0 -3 -4 -8 -10 -11 -5 -3 -10 -1 -10 4 0 6
5 11 10 11 6 0 10 -2 10 -4z m4420 -52 c0 -8 -4 -12 -10 -9 -5 3 -10 10 -10
16 0 5 5 9 10 9 6 0 10 -7 10 -16z m-3780 -74 c0 -5 -2 -10 -4 -10 -3 0 -8 5
-11 10 -3 6 -1 10 4 10 6 0 11 -4 11 -10z m-670 -174 c0 -11 -19 -15 -25 -6
-3 5 1 10 9 10 9 0 16 -2 16 -4z m657 -32 c-3 -3 -12 -4 -19 -1 -8 3 -5 6 6 6
11 1 17 -2 13 -5z m3313 -948 c0 -3 -4 -8 -10 -11 -5 -3 -10 -1 -10 4 0 6 5
11 10 11 6 0 10 -2 10 -4z m-3570 -396 c0 -5 -4 -10 -9 -10 -6 0 -13 5 -16 10
-3 6 1 10 9 10 9 0 16 -4 16 -10z m3545 -20 c-3 -5 -14 -10 -23 -9 -14 0 -13
2 3 9 27 11 27 11 20 0z m-3368 -52 c-3 -8 -6 -5 -6 6 -1 11 2 17 5 13 3 -3 4
-12 1 -19z m3714 5 c13 -16 12 -17 -3 -4 -10 7 -18 15 -18 17 0 8 8 3 21 -13z
m106 11 c-3 -3 -12 -4 -19 -1 -8 3 -5 6 6 6 11 1 17 -2 13 -5z m-3767 -59
c129 -22 228 -43 268 -56 108 -35 130 -43 159 -55 17 -8 36 -14 42 -14 6 0 19
-4 29 -10 9 -5 40 -19 67 -31 75 -31 180 -84 270 -134 44 -24 87 -47 95 -51 8
-4 75 -43 148 -88 74 -45 141 -85 151 -91 54 -33 178 -111 186 -118 6 -4 45
-33 89 -64 l78 -56 -23 -19 c-13 -10 -44 -30 -69 -45 -25 -14 -47 -29 -50 -32
-7 -8 -99 -69 -212 -139 l-96 -60 -116 79 c-64 44 -120 79 -125 79 -5 0 -11 4
-13 9 -6 17 -316 182 -453 241 -135 58 -147 63 -235 83 -343 82 -572 54 -682
-86 -75 -94 -81 -233 -15 -361 26 -49 115 -145 175 -190 69 -50 243 -136 276
-136 8 0 17 -4 20 -9 4 -5 30 -12 59 -16 28 -4 57 -11 62 -15 17 -13 129 -21
283 -20 150 0 210 7 317 34 33 8 80 20 105 26 25 5 54 14 65 19 11 5 40 17 65
27 156 62 343 161 333 177 -3 6 -2 7 4 4 11 -7 62 17 110 51 17 12 33 22 36
22 3 0 36 21 74 47 37 26 118 81 178 122 61 41 115 79 120 83 29 24 183 132
275 193 58 39 107 73 110 76 21 24 355 236 473 300 83 45 201 98 272 124 28 9
59 21 70 25 23 10 90 27 155 41 25 5 56 12 70 15 51 11 217 21 300 17 133 -6
273 -38 370 -86 47 -23 87 -44 90 -48 3 -3 15 -9 27 -13 29 -9 170 -148 211
-208 81 -119 118 -227 138 -408 5 -46 -14 -211 -33 -280 -33 -122 -95 -249
-173 -355 -51 -69 -157 -174 -239 -236 -77 -58 -257 -148 -356 -179 -219 -67
-277 -75 -530 -75 -146 0 -240 4 -280 13 -33 8 -91 20 -130 28 -205 44 -418
125 -610 232 -64 36 -135 81 -135 86 0 2 42 32 93 67 119 81 151 103 157 109
3 3 32 23 65 45 33 22 73 50 88 62 36 29 58 29 107 -2 22 -14 43 -25 46 -25 4
0 28 -10 53 -21 165 -77 382 -128 545 -129 159 0 391 57 501 124 163 100 256
226 273 373 11 99 -13 207 -60 263 -15 18 -94 80 -101 80 -3 0 -18 5 -34 12
-49 20 -56 21 -183 21 -105 0 -141 -4 -225 -27 -55 -15 -113 -33 -130 -41 -16
-7 -57 -23 -90 -36 -33 -13 -76 -33 -95 -44 -19 -12 -43 -24 -53 -28 -50 -19
-297 -179 -548 -357 -28 -19 -82 -57 -122 -85 -40 -27 -77 -55 -83 -60 -14
-14 -342 -236 -427 -289 -141 -89 -226 -139 -302 -175 -128 -61 -173 -81 -187
-81 -8 0 -18 -4 -23 -9 -6 -4 -64 -25 -130 -46 -66 -20 -131 -41 -145 -46 -24
-8 -72 -17 -200 -40 -72 -12 -405 -12 -500 0 -41 6 -106 17 -145 25 -38 8 -95
20 -125 26 -30 6 -59 16 -65 21 -5 5 -17 9 -26 9 -67 0 -382 174 -489 270
-108 97 -174 169 -215 234 -10 17 -22 33 -25 36 -6 5 -76 149 -90 185 -28 70
-40 121 -50 205 -12 103 -12 270 0 310 4 14 17 57 29 95 46 154 176 316 311
389 19 10 51 27 70 37 19 11 42 19 50 19 9 0 20 4 25 9 16 14 132 42 198 48
34 2 63 6 65 8 11 10 270 3 342 -10z m-730 -75 c0 -5 -4 -10 -10 -10 -5 0 -10
5 -10 10 0 6 5 10 10 10 6 0 10 -4 10 -10z m3334 -115 c-4 -8 -11 -15 -16 -15
-6 0 -5 6 2 15 7 8 14 15 16 15 2 0 1 -7 -2 -15z m-3669 -125 c3 -5 2 -10 -4
-10 -5 0 -13 5 -16 10 -3 6 -2 10 4 10 5 0 13 -4 16 -10z m5320 -60 c3 -5 1
-10 -4 -10 -6 0 -11 5 -11 10 0 6 2 10 4 10 3 0 8 -4 11 -10z m25 -50 c0 -5
-2 -10 -4 -10 -3 0 -8 5 -11 10 -3 6 -1 10 4 10 6 0 11 -4 11 -10z m85 -160
c3 -5 -1 -10 -9 -10 -9 0 -16 5 -16 10 0 6 4 10 9 10 6 0 13 -4 16 -10z
m-4535 -9 c0 -12 -20 -25 -27 -18 -7 7 6 27 18 27 5 0 9 -4 9 -9z m3504 -30
c-7 -7 -34 21 -28 31 3 5 12 1 19 -9 7 -10 12 -20 9 -22z m-17 -27 c-3 -3 -12
-4 -19 -1 -8 3 -5 6 6 6 11 1 17 -2 13 -5z m-3282 -14 c210 -47 304 -81 500
-181 166 -84 375 -211 432 -262 19 -16 25 -18 38 -7 9 7 15 8 15 2 0 -6 -28
-24 -62 -40 -288 -137 -620 -170 -918 -92 -25 6 -54 16 -65 20 -11 5 -41 18
-67 29 -26 12 -51 21 -57 21 -5 0 -11 3 -13 8 -1 4 -25 18 -51 32 -63 33 -162
136 -188 196 -25 59 -28 155 -5 187 35 51 72 80 111 90 35 8 289 6 330 -3z
m3462 -15 c76 -20 123 -59 145 -121 24 -64 12 -152 -29 -229 -29 -55 -129
-140 -215 -183 -73 -37 -104 -47 -208 -70 -65 -14 -256 -12 -352 3 -56 9 -108
20 -117 24 -9 5 -33 11 -53 15 -20 4 -50 13 -65 21 -15 8 -32 15 -36 15 -21 0
-137 62 -137 73 0 12 26 30 240 170 124 81 268 159 365 197 33 13 65 27 70 32
12 8 75 25 150 40 28 5 61 13 75 18 40 13 105 11 167 -5z m-582 -15 c3 -5 1
-10 -4 -10 -6 0 -11 5 -11 10 0 6 2 10 4 10 3 0 8 -4 11 -10z m-1158 -16 c-3
-3 -12 -4 -19 -1 -8 3 -5 6 6 6 11 1 17 -2 13 -5z m-77 -44 c0 -5 -4 -10 -10
-10 -5 0 -10 5 -10 10 0 6 5 10 10 10 6 0 10 -4 10 -10z m-2800 -29 c0 -5 -7
-12 -16 -15 -14 -5 -15 -4 -4 9 14 17 20 19 20 6z m3860 -45 c0 -2 -7 -6 -15
-10 -8 -3 -15 -1 -15 4 0 6 7 10 15 10 8 0 15 -2 15 -4z m-2090 -16 c0 -5 -5
-10 -11 -10 -5 0 -7 5 -4 10 3 6 8 10 11 10 2 0 4 -4 4 -10z m80 0 c0 -5 -4
-10 -10 -10 -5 0 -10 5 -10 10 0 6 5 10 10 10 6 0 10 -4 10 -10z m2970 -85
c-7 -9 -15 -13 -19 -10 -3 3 1 10 9 15 21 14 24 12 10 -5z m-2240 -5 c0 -5 -5
-10 -11 -10 -5 0 -7 5 -4 10 3 6 8 10 11 10 2 0 4 -4 4 -10z m30 -30 c0 -5 -4
-10 -10 -10 -5 0 -10 5 -10 10 0 6 5 10 10 10 6 0 10 -4 10 -10z m-60 -14 c0
-3 -4 -8 -10 -11 -5 -3 -10 -1 -10 4 0 6 5 11 10 11 6 0 10 -2 10 -4z m-240
-96 c0 -5 -7 -7 -15 -4 -8 4 -15 8 -15 10 0 2 7 4 15 4 8 0 15 -4 15 -10z
m1267 4 c-3 -3 -12 -4 -19 -1 -8 3 -5 6 6 6 11 1 17 -2 13 -5z m-2797 -44 c0
-5 -4 -10 -10 -10 -5 0 -10 5 -10 10 0 6 5 10 10 10 6 0 10 -4 10 -10z m87
-46 c-3 -3 -12 -4 -19 -1 -8 3 -5 6 6 6 11 1 17 -2 13 -5z m1363 -18 c0 -2 -7
-7 -16 -10 -8 -3 -12 -2 -9 4 6 10 25 14 25 6z m990 -56 c0 -5 -5 -10 -11 -10
-5 0 -7 5 -4 10 3 6 8 10 11 10 2 0 4 -4 4 -10z m380 0 c0 -5 -5 -10 -11 -10
-5 0 -7 5 -4 10 3 6 8 10 11 10 2 0 4 -4 4 -10z m-1735 -30 c3 -5 1 -10 -4
-10 -6 0 -11 5 -11 10 0 6 2 10 4 10 3 0 8 -4 11 -10z m-502 -47 c-7 -2 -19
-2 -25 0 -7 3 -2 5 12 5 14 0 19 -2 13 -5z m-236 -29 c-3 -3 -12 -4 -19 -1 -8
3 -5 6 6 6 11 1 17 -2 13 -5z m3063 2 c0 -3 -4 -8 -10 -11 -5 -3 -10 -1 -10 4
0 6 5 11 10 11 6 0 10 -2 10 -4z m-2445 -16 c3 -5 1 -10 -4 -10 -6 0 -11 5
-11 10 0 6 2 10 4 10 3 0 8 -4 11 -10z m-205 -10 c0 -5 -4 -10 -10 -10 -5 0
-10 5 -10 10 0 6 5 10 10 10 6 0 10 -4 10 -10z m2877 4 c-3 -3 -12 -4 -19 -1
-8 3 -5 6 6 6 11 1 17 -2 13 -5z m-407 -14 c0 -5 -4 -10 -10 -10 -5 0 -10 5
-10 10 0 6 5 10 10 10 6 0 10 -4 10 -10z m1350 0 c0 -5 -2 -10 -4 -10 -3 0 -8
5 -11 10 -3 6 -1 10 4 10 6 0 11 -4 11 -10z m-1160 -10 c0 -5 -5 -10 -11 -10
-5 0 -7 5 -4 10 3 6 8 10 11 10 2 0 4 -4 4 -10z m-2707 -7 c-7 -2 -19 -2 -25
0 -7 3 -2 5 12 5 14 0 19 -2 13 -5z m3742 -133 c3 -5 2 -10 -4 -10 -5 0 -13 5
-16 10 -3 6 -2 10 4 10 5 0 13 -4 16 -10z m-4885 -30 c0 -5 -2 -10 -4 -10 -3
0 -8 5 -11 10 -3 6 -1 10 4 10 6 0 11 -4 11 -10z m2567 -56 c-3 -3 -12 -4 -19
-1 -8 3 -5 6 6 6 11 1 17 -2 13 -5z m-307 -94 c0 -5 -4 -10 -10 -10 -5 0 -10
5 -10 10 0 6 5 10 10 10 6 0 10 -4 10 -10z m-2020 -70 c0 -5 -4 -10 -10 -10
-5 0 -10 5 -10 10 0 6 5 10 10 10 6 0 10 -4 10 -10z m90 -50 c-18 -12 -30 -13
-30 -2 0 4 10 9 22 9 18 2 20 0 8 -7z m120 0 c0 -5 -4 -10 -10 -10 -5 0 -10 5
-10 10 0 6 5 10 10 10 6 0 10 -4 10 -10z m2650 -60 c0 -5 -4 -10 -10 -10 -5 0
-10 5 -10 10 0 6 5 10 10 10 6 0 10 -4 10 -10z m-2273 -46 c-3 -3 -12 -4 -19
-1 -8 3 -5 6 6 6 11 1 17 -2 13 -5z m2700 0 c-3 -3 -12 -4 -19 -1 -8 3 -5 6 6
6 11 1 17 -2 13 -5z m-1867 -24 c0 -5 -5 -10 -11 -10 -5 0 -7 5 -4 10 3 6 8
10 11 10 2 0 4 -4 4 -10z m2107 -6 c-3 -3 -12 -4 -19 -1 -8 3 -5 6 6 6 11 1
17 -2 13 -5z m-2937 -8 c0 -3 -4 -8 -10 -11 -5 -3 -10 -1 -10 4 0 6 5 11 10
11 6 0 10 -2 10 -4z m2730 -6 c0 -5 -4 -10 -10 -10 -5 0 -10 5 -10 10 0 6 5
10 10 10 6 0 10 -4 10 -10z m237 -16 c-3 -3 -12 -4 -19 -1 -8 3 -5 6 6 6 11 1
17 -2 13 -5z m-2462 -24 c13 -6 15 -9 5 -9 -8 0 -22 4 -30 9 -18 12 -2 12 25
0z"/>
<path d="M2844 7334 c-108 -127 -269 -204 -427 -204 -46 0 -85 -18 -92 -42
-41 -128 320 -97 498 44 100 79 147 139 147 187 0 45 -14 61 -55 61 -25 0 -39
-10 -71 -46z m-234 -270 c0 -14 -3 -14 -15 -4 -8 7 -15 14 -15 16 0 2 7 4 15
4 8 0 15 -7 15 -16z m-163 -20 c-3 -3 -12 -4 -19 -1 -8 3 -5 6 6 6 11 1 17 -2
13 -5z m63 -14 c0 -5 -2 -10 -4 -10 -3 0 -8 5 -11 10 -3 6 -1 10 4 10 6 0 11
-4 11 -10z"/>
<path d="M4662 7368 c-7 -7 -12 -28 -12 -48 0 -42 24 -72 120 -146 84 -66 140
-96 226 -124 38 -12 77 -26 86 -31 10 -5 53 -9 96 -9 90 0 116 16 110 67 -4
35 -38 52 -128 64 -79 10 -186 48 -250 89 -25 16 -72 56 -105 90 -51 51 -65
60 -95 60 -20 0 -41 -5 -48 -12z"/>
<path d="M2952 6696 c-11 -15 -25 -49 -31 -77 -23 -104 -73 -159 -150 -162
-77 -3 -127 37 -138 111 -3 20 -11 52 -19 70 -13 28 -20 32 -54 32 -49 0 -73
-30 -74 -93 -1 -57 47 -150 99 -192 91 -73 217 -85 320 -31 51 27 125 114 125
146 0 9 5 21 11 27 6 6 14 42 16 80 5 78 -5 99 -53 109 -26 5 -35 1 -52 -20z"/>
<path d="M5175 6685 c-14 -13 -25 -35 -25 -48 0 -38 -26 -90 -61 -125 -28 -27
-40 -32 -82 -32 -45 0 -54 4 -88 40 -24 25 -41 54 -45 77 -15 82 -55 119 -103
94 -33 -18 -44 -49 -37 -102 15 -110 103 -217 198 -239 70 -17 158 -6 214 26
42 25 104 89 104 107 0 5 6 23 14 40 34 76 29 158 -10 176 -37 16 -52 14 -79
-14z"/>
<path d="M5030 6137 c-8 -7 -26 -39 -39 -72 -13 -33 -33 -82 -46 -110 -23 -52
-49 -116 -51 -125 -2 -11 -16 -46 -24 -62 -5 -9 -15 -58 -21 -108 -16 -124 -3
-190 49 -243 121 -125 318 -91 393 68 33 69 19 239 -27 345 -8 19 -19 44 -24
55 -5 11 -19 43 -30 70 -32 73 -78 166 -91 181 -14 17 -69 18 -89 1z m88 -299
c47 -111 62 -164 62 -221 0 -102 -74 -170 -147 -135 -43 21 -55 53 -49 138 5
70 18 122 50 195 7 17 19 45 26 63 7 17 16 32 20 32 4 0 21 -33 38 -72z"/>
<path d="M3775 6093 c-16 -3 -34 -9 -39 -14 -6 -5 -18 -9 -28 -9 -29 0 -132
-58 -183 -103 -40 -35 -47 -48 -48 -80 -1 -41 15 -62 54 -72 21 -5 36 3 85 44
32 28 65 51 72 51 6 0 12 4 12 8 0 16 108 42 175 42 82 0 166 -37 236 -103 53
-52 71 -60 106 -46 34 13 43 26 43 65 0 54 -70 122 -180 176 -80 39 -201 56
-305 41z m182 -29 c-3 -3 -12 -4 -19 -1 -8 3 -5 6 6 6 11 1 17 -2 13 -5z"/>
</g>
</svg>
