<?xml version="1.0" standalone="no"?>
<!DOCTYPE svg PUBLIC "-//W3C//DTD SVG 20010904//EN"
 "http://www.w3.org/TR/2001/REC-SVG-20010904/DTD/svg10.dtd">
<svg version="1.0" xmlns="http://www.w3.org/2000/svg"
 width="1024.000000pt" height="1024.000000pt" viewBox="0 0 1024.000000 1024.000000"
 preserveAspectRatio="xMidYMid meet">

<g transform="translate(0.000000,1024.000000) scale(0.100000,-0.100000)"
fill="#000000" stroke="none">
<path d="M4930 9679 c-258 -30 -498 -116 -708 -255 -106 -70 -290 -252 -354
-349 -157 -239 -231 -472 -231 -735 0 -291 87 -541 261 -748 43 -51 142 -140
179 -160 15 -9 8 -20 -57 -89 -123 -129 -180 -228 -247 -433 -66 -203 -97
-495 -74 -697 l12 -101 -70 -88 c-123 -152 -151 -280 -110 -494 61 -317 422
-524 884 -507 103 4 165 12 237 31 113 29 281 98 390 159 l76 44 38 -24 c555
-344 1306 -254 1514 183 40 82 60 177 60 284 0 155 -43 263 -145 365 -59 58
-60 61 -53 100 13 72 8 385 -7 495 -41 289 -140 511 -301 680 l-73 76 30 18
c49 29 145 123 198 194 143 194 216 405 227 657 23 523 -293 1028 -789 1260
-248 116 -592 168 -887 134z m445 -124 c219 -33 402 -102 571 -215 106 -71
278 -245 347 -351 141 -218 199 -403 200 -649 1 -162 -19 -277 -70 -400 -85
-207 -188 -332 -374 -458 -49 -33 -64 -55 -52 -77 5 -7 45 -47 91 -90 173
-162 270 -352 317 -615 18 -106 32 -401 21 -473 l-7 -47 -29 15 c-34 18 -131
40 -211 50 l-57 6 -6 147 c-9 185 -21 297 -51 441 -29 136 -44 163 -87 159
-51 -5 -55 -24 -30 -145 12 -59 26 -139 32 -177 11 -72 32 -427 26 -434 -2 -2
-37 -10 -78 -19 -183 -37 -429 -155 -701 -335 -49 -32 -90 -58 -92 -58 -3 0
-52 31 -110 70 -274 180 -556 306 -749 335 l-49 8 6 149 c8 167 26 301 62 458
21 94 22 107 9 128 -18 27 -57 29 -83 3 -40 -40 -88 -316 -98 -563 l-6 -166
-61 -7 c-55 -7 -182 -40 -230 -60 -18 -8 -18 0 -13 206 7 345 57 549 182 745
42 65 144 174 205 219 81 59 78 74 -29 149 -274 193 -421 482 -421 826 0 556
380 1029 955 1190 176 50 471 65 670 35z m-1085 -3441 c113 -21 250 -72 394
-147 141 -73 337 -198 333 -212 -2 -5 -50 -38 -107 -74 l-104 -64 -31 18
c-319 189 -450 239 -635 240 -99 0 -121 -3 -155 -22 -97 -52 -136 -151 -105
-263 38 -138 292 -238 536 -210 243 27 375 86 764 340 321 210 502 308 678
367 225 75 455 51 604 -63 95 -73 158 -205 158 -333 0 -202 -112 -370 -312
-466 -136 -65 -188 -77 -373 -82 -231 -7 -399 26 -590 117 -133 64 -132 56
-17 132 l100 67 88 -29 c143 -45 275 -63 427 -58 108 4 144 10 200 31 94 35
141 68 184 133 66 99 57 202 -23 273 -65 57 -127 75 -235 68 -188 -12 -371
-97 -744 -347 -333 -223 -504 -312 -705 -367 -52 -14 -106 -17 -270 -18 l-205
0 -113 39 c-62 21 -139 56 -170 76 -219 142 -301 405 -191 611 42 78 132 171
197 203 111 55 265 70 422 40z m18 -375 c82 -26 362 -164 362 -180 0 -19 -230
-69 -320 -69 -134 0 -296 51 -340 107 -26 33 -27 102 -2 133 9 12 33 26 52 30
50 13 170 2 248 -21z m1909 -5 c55 -35 53 -101 -5 -157 -101 -98 -300 -119
-571 -61 -45 10 -81 20 -81 24 0 7 166 104 245 143 165 81 334 102 412 51z"/>
<path d="M4433 8604 c-53 -19 -128 -85 -154 -136 -12 -23 -23 -64 -26 -93 -5
-49 -4 -54 22 -71 24 -16 30 -16 53 -3 19 10 29 28 38 67 21 95 77 142 169
142 75 0 123 -31 159 -103 20 -41 36 -59 54 -64 36 -9 57 9 60 51 6 72 -83
179 -176 210 -56 20 -143 19 -199 0z"/>
<path d="M5628 8611 c-137 -44 -260 -253 -163 -277 38 -9 54 1 75 49 41 93 89
127 178 127 81 0 152 -63 165 -148 9 -52 39 -79 75 -66 39 14 48 49 28 116
-20 72 -68 134 -131 173 -41 26 -59 30 -124 32 -42 1 -88 -2 -103 -6z"/>
<path d="M4798 8095 c-16 -35 4 -76 64 -130 112 -100 297 -123 444 -53 65 30
144 111 144 147 0 31 -27 61 -55 61 -11 0 -40 -21 -65 -48 -60 -63 -108 -85
-197 -90 -92 -5 -162 24 -219 92 -31 38 -44 46 -71 46 -26 0 -36 -6 -45 -25z"/>
<path d="M6670 9639 c-61 -13 -120 -99 -120 -176 0 -72 79 -234 160 -325 50
-57 75 -61 153 -22 208 106 310 245 263 359 -20 48 -42 72 -80 92 -39 20 -113
21 -150 1 -29 -15 -30 -14 -54 14 -42 50 -107 72 -172 57z m85 -131 c9 -13 26
-39 38 -58 30 -46 57 -48 116 -11 54 35 73 38 95 15 30 -30 20 -71 -31 -122
-55 -55 -172 -129 -182 -115 -3 5 -21 30 -39 56 -71 101 -103 212 -70 245 19
19 56 14 73 -10z"/>
<path d="M3476 9625 c-21 -7 -53 -28 -71 -45 -33 -32 -33 -32 -65 -15 -43 22
-130 16 -168 -12 -70 -51 -92 -142 -55 -221 29 -63 132 -155 223 -201 95 -48
121 -50 165 -16 80 60 185 260 185 348 -1 66 -53 144 -113 166 -36 14 -53 13
-101 -4z m85 -121 c34 -41 -20 -191 -96 -264 l-33 -32 -53 28 c-63 34 -156
124 -165 159 -7 30 19 75 44 75 9 0 40 -16 69 -36 59 -40 94 -41 114 -1 41 79
89 108 120 71z"/>
<path d="M6406 4395 c-19 -19 -21 -66 -4 -83 7 -7 27 -12 45 -12 24 0 37 7 50
26 15 24 15 29 2 53 -18 32 -68 40 -93 16z"/>
<path d="M7280 4144 l0 -256 29 -29 c25 -24 37 -29 80 -29 l51 0 0 44 c0 41
-2 45 -27 48 l-28 3 -3 238 -2 237 -50 0 -50 0 0 -256z"/>
<path d="M2530 4105 l0 -275 183 0 183 0 -2 48 -2 47 -126 3 -126 3 0 64 0 65
115 0 115 0 0 50 0 50 -115 0 -115 0 0 60 0 60 125 0 125 0 0 50 0 50 -180 0
-180 0 0 -275z"/>
<path d="M3408 4337 c-36 -10 -38 -12 -38 -53 0 -42 -1 -43 -36 -46 -35 -3
-36 -4 -38 -45 l-2 -43 38 0 38 0 0 -122 c0 -104 3 -128 20 -155 24 -40 84
-61 138 -47 35 9 37 11 40 55 l3 45 -36 -4 c-58 -7 -65 6 -65 124 l0 104 55 0
55 0 0 46 0 46 -55 -4 -55 -3 0 58 c0 62 0 62 -62 44z"/>
<path d="M2325 4270 c-36 -40 -7 -110 45 -110 28 0 70 39 70 66 0 55 -78 85
-115 44z"/>
<path d="M4417 4236 c-178 -48 -199 -305 -32 -394 46 -24 150 -21 201 5 66 35
72 48 39 83 -28 29 -28 29 -52 10 -58 -45 -157 -30 -187 29 -9 16 -16 32 -16
36 0 3 65 5 145 5 l145 0 0 34 c0 44 -17 94 -47 134 -43 58 -115 79 -196 58z
m110 -98 c47 -53 41 -58 -62 -58 -52 0 -95 4 -95 9 0 5 12 23 26 40 21 26 33
31 68 31 31 0 48 -6 63 -22z"/>
<path d="M4820 4240 c-51 -12 -100 -70 -100 -118 0 -20 7 -48 16 -60 17 -24
72 -55 119 -66 35 -9 75 -33 75 -46 0 -4 -7 -16 -16 -24 -24 -24 -85 -20 -127
9 l-37 24 -27 -25 c-21 -20 -25 -29 -17 -42 46 -72 194 -89 275 -31 50 35 57
122 13 170 -10 11 -46 28 -81 39 -80 24 -103 37 -103 55 0 46 111 45 145 -2 8
-11 16 -8 40 16 l29 31 -25 26 c-13 14 -31 29 -39 34 -25 14 -103 19 -140 10z"/>
<path d="M5272 4240 c-18 -4 -42 -16 -52 -25 -19 -17 -20 -17 -20 4 0 20 -4
22 -52 19 l-53 -3 -3 -282 -2 -283 55 0 55 0 0 102 c0 96 1 100 18 85 9 -8 35
-20 57 -26 138 -36 253 103 216 262 -25 110 -114 170 -219 147z m87 -118 c58
-58 46 -162 -22 -195 -44 -22 -78 -17 -113 18 -20 20 -24 34 -24 84 0 49 4 65
26 90 35 42 93 44 133 3z"/>
<path d="M6709 4235 c-129 -41 -179 -219 -94 -331 83 -108 273 -100 347 15 27
42 29 52 26 122 -2 62 -8 83 -30 116 -48 72 -158 107 -249 78z m154 -125 c46
-51 33 -146 -24 -176 -65 -33 -138 1 -160 76 -10 32 -9 44 7 76 24 48 57 66
109 60 28 -3 48 -14 68 -36z"/>
<path d="M7640 4241 c-91 -18 -151 -88 -158 -181 -7 -94 30 -170 102 -207 145
-75 306 20 306 181 0 70 -12 102 -57 148 -49 50 -123 73 -193 59z m100 -108
c34 -20 50 -52 50 -98 0 -68 -45 -115 -110 -115 -50 0 -100 55 -100 110 0 96
82 149 160 103z"/>
<path d="M3022 4221 c-65 -42 -80 -132 -28 -180 13 -12 54 -32 91 -44 77 -25
101 -50 71 -73 -32 -23 -100 -18 -134 11 l-29 24 -28 -29 -29 -30 28 -29 c62
-65 199 -67 268 -4 26 23 38 77 27 118 -12 42 -46 67 -119 88 -30 9 -64 23
-75 31 -20 14 -20 14 0 36 16 18 27 21 58 17 22 -3 49 -15 62 -27 l23 -21 28
25 c33 28 29 44 -20 80 -40 30 -150 34 -194 7z"/>
<path d="M3735 4224 c-73 -38 -115 -106 -115 -189 0 -182 213 -282 352 -164
l33 27 -29 30 -29 31 -27 -20 c-38 -29 -99 -35 -138 -15 -26 14 -62 60 -62 81
0 3 65 5 145 5 l145 0 0 40 c0 72 -42 145 -102 176 -36 19 -135 18 -173 -2z
m135 -74 c10 -5 23 -23 28 -40 l11 -30 -95 0 -95 0 16 30 c8 16 23 34 32 39
23 13 79 14 103 1z"/>
<path d="M5625 4222 c-16 -11 -36 -26 -44 -36 -13 -15 -11 -20 12 -43 24 -24
27 -25 49 -11 35 23 74 29 105 17 32 -12 43 -26 43 -56 0 -21 -4 -23 -62 -24
-85 0 -127 -17 -156 -59 -42 -62 -15 -147 56 -177 45 -19 105 -12 144 17 28
21 28 21 28 0 0 -17 6 -20 45 -20 l45 0 0 148 c0 166 -10 200 -69 239 -45 30
-151 32 -196 5z m164 -254 c-5 -18 -9 -34 -9 -35 0 -7 -61 -33 -76 -33 -45 0
-73 68 -36 89 9 6 43 11 74 11 l57 0 -10 -32z"/>
<path d="M6065 4215 c-60 -39 -88 -88 -93 -162 -2 -33 1 -77 8 -97 45 -137
223 -181 322 -79 l32 33 -32 32 -32 33 -15 -22 c-20 -28 -84 -47 -118 -34 -44
17 -67 58 -67 118 0 47 4 59 29 84 39 38 100 41 136 5 l24 -24 35 26 c41 29
38 45 -16 84 -25 17 -49 24 -103 26 -62 3 -75 0 -110 -23z"/>
<path d="M6400 4035 l0 -205 50 0 50 0 0 205 0 205 -50 0 -50 0 0 -205z"/>
<path d="M2320 3905 l0 -185 55 0 55 0 0 185 0 185 -55 0 -55 0 0 -185z"/>
<path d="M4250 3550 c-24 -24 -25 -48 -4 -78 30 -43 104 -17 104 36 0 28 -34
62 -60 62 -11 0 -29 -9 -40 -20z"/>
<path d="M6190 3550 c-39 -39 -14 -100 42 -100 53 0 79 74 36 104 -30 21 -54
20 -78 -4z"/>
<path d="M8441 3378 c4 -84 10 -169 14 -188 6 -33 9 -35 44 -35 l39 0 6 65 c3
36 6 120 6 188 l0 122 -57 0 -58 0 6 -152z"/>
<path d="M3285 3496 c-38 -12 -40 -15 -43 -59 -3 -47 -3 -47 -40 -47 l-38 0 4
-40 c4 -38 6 -40 38 -40 l34 0 0 -115 c0 -133 13 -175 59 -199 30 -16 96 -21
125 -10 11 4 16 19 16 50 0 43 0 43 -30 37 -22 -4 -36 0 -50 12 -17 16 -20 31
-20 122 l0 103 53 0 53 0 0 40 1 40 -54 0 -53 0 0 60 c0 33 -3 60 -7 59 -5 -1
-26 -7 -48 -13z"/>
<path d="M7368 3497 c-37 -10 -38 -12 -38 -59 l0 -48 -40 0 -40 0 0 -40 0 -40
40 0 40 0 0 -131 c0 -129 0 -131 28 -158 30 -31 90 -45 137 -33 27 8 30 13 33
55 l3 46 -35 -6 c-59 -9 -66 4 -66 123 l0 104 50 0 50 0 0 40 0 40 -50 0 -50
0 0 60 c0 65 1 65 -62 47z"/>
<path d="M1641 3389 c-48 -19 -84 -54 -107 -103 -68 -146 24 -306 176 -306 52
0 115 27 147 62 l23 24 -33 32 c-33 32 -34 32 -51 13 -68 -75 -186 -24 -186
81 0 39 30 92 61 108 29 16 86 6 113 -19 21 -20 21 -20 54 0 38 25 40 38 9 67
-49 46 -146 65 -206 41z"/>
<path d="M2030 3378 c-127 -69 -148 -244 -40 -342 133 -120 340 -27 340 153 0
119 -77 202 -193 209 -51 3 -70 -1 -107 -20z m134 -82 c47 -19 66 -51 66 -109
0 -89 -77 -135 -158 -94 -45 22 -65 93 -42 151 9 26 63 66 88 66 7 0 28 -6 46
-14z"/>
<path d="M2536 3375 c-34 -23 -36 -23 -36 -5 0 17 -7 20 -50 20 l-50 0 0 -200
0 -200 55 0 55 0 0 135 c0 131 1 137 25 160 25 26 63 32 95 15 29 -16 40 -66
40 -191 l0 -119 51 0 51 0 -4 153 c-3 131 -6 157 -23 187 -41 70 -141 91 -209
45z"/>
<path d="M2914 3386 c-74 -32 -97 -117 -48 -175 18 -22 45 -37 95 -52 79 -24
100 -46 69 -74 -26 -24 -102 -16 -134 14 l-22 21 -30 -31 -29 -30 32 -29 c79
-71 237 -60 278 20 42 81 3 147 -109 184 -79 25 -102 49 -72 72 11 8 30 14 43
14 29 0 83 -27 83 -40 0 -16 13 -11 43 15 26 24 27 26 12 49 -32 49 -144 71
-211 42z"/>
<path d="M3656 3385 c-16 -9 -35 -23 -42 -33 -12 -15 -13 -14 -14 11 0 25 -3
27 -45 27 l-45 0 0 -200 0 -200 50 0 50 0 0 113 c0 142 14 175 83 197 46 15
47 16 47 58 0 39 -2 42 -27 42 -16 0 -41 -7 -57 -15z"/>
<path d="M4561 3374 c-30 -25 -31 -25 -31 -5 0 19 -6 21 -50 21 l-50 0 0 -200
0 -200 49 0 49 0 4 129 c3 113 6 133 24 158 30 40 75 43 103 7 19 -24 21 -39
21 -160 l0 -134 55 0 55 0 0 135 c0 131 1 137 25 160 43 44 98 28 115 -33 5
-20 10 -88 10 -149 l0 -113 50 0 50 0 0 133 c0 149 -9 195 -48 239 -21 23 -39
31 -74 35 -60 7 -89 -1 -128 -34 l-32 -27 -17 21 c-40 51 -130 60 -180 17z"/>
<path d="M5220 3378 c-99 -50 -140 -180 -88 -278 106 -197 390 -131 390 89 0
31 -5 68 -10 82 -16 40 -73 100 -109 115 -50 22 -132 18 -183 -8z m155 -90
c87 -68 51 -208 -54 -208 -89 0 -139 99 -91 178 33 54 97 68 145 30z"/>
<path d="M5650 3382 c-43 -21 -74 -79 -65 -121 9 -42 49 -77 108 -96 76 -24
97 -36 97 -56 0 -45 -92 -53 -140 -12 l-32 26 -29 -29 -29 -30 33 -32 c66 -64
189 -65 260 -2 28 25 32 34 32 80 0 45 -4 55 -32 80 -18 16 -59 36 -92 46 -65
18 -87 35 -78 59 13 33 91 31 126 -4 19 -19 20 -18 47 10 27 28 27 29 8 50
-43 49 -148 64 -214 31z"/>
<path d="M6978 3384 c-16 -8 -28 -19 -28 -24 0 -6 -4 -10 -9 -10 -5 0 -7 9 -4
20 5 18 0 20 -46 20 l-51 0 0 -200 0 -200 50 0 50 0 0 131 0 131 29 29 c36 36
73 37 106 4 24 -23 25 -29 25 -160 l0 -135 50 0 50 0 0 154 c0 142 -2 155 -23
187 -42 63 -136 88 -199 53z"/>
<path d="M7692 3379 c-148 -75 -147 -295 1 -371 92 -47 206 -19 264 65 25 36
28 49 28 122 0 74 -3 85 -27 118 -47 61 -85 81 -158 85 -51 2 -74 -1 -108 -19z
m164 -103 c30 -30 34 -40 34 -86 0 -44 -4 -56 -29 -81 -87 -86 -224 30 -165
140 37 69 106 81 160 27z"/>
<path d="M8134 3386 c-74 -32 -97 -117 -48 -175 18 -22 45 -36 94 -51 37 -11
74 -27 81 -36 11 -14 10 -19 -11 -36 -31 -25 -101 -20 -133 10 l-22 20 -30
-24 c-35 -27 -30 -44 23 -80 80 -55 227 -31 260 42 25 54 6 128 -40 152 -12 7
-50 21 -82 30 -70 21 -91 45 -61 68 26 20 90 12 119 -15 l22 -21 27 28 c32 33
24 53 -33 82 -45 23 -120 26 -166 6z"/>
<path d="M3791 3238 c4 -141 6 -156 28 -192 42 -68 137 -87 205 -41 34 23 36
23 36 5 0 -17 7 -20 45 -20 l45 0 0 200 0 200 -50 0 -50 0 0 -115 c0 -163 -27
-216 -102 -200 -46 10 -58 51 -58 195 l0 120 -51 0 -51 0 3 -152z"/>
<path d="M4240 3190 l0 -200 50 0 50 0 0 200 0 200 -50 0 -50 0 0 -200z"/>
<path d="M6180 3177 c0 -229 -2 -237 -52 -237 -27 0 -28 -2 -28 -51 l0 -51 55
4 c66 6 105 31 122 79 8 22 12 110 12 252 l1 217 -55 0 -55 0 0 -213z"/>
<path d="M6390 3240 c0 -114 4 -158 15 -180 43 -83 157 -105 219 -43 l26 26 0
-27 c0 -24 3 -26 45 -26 l45 0 0 200 0 200 -50 0 -50 0 0 -114 c0 -159 -16
-196 -88 -196 -57 0 -67 25 -67 176 l0 134 -47 0 -48 0 0 -150z"/>
<path d="M8452 3098 c-17 -17 -15 -74 4 -92 20 -20 53 -20 82 0 29 20 31 79 3
94 -26 14 -74 13 -89 -2z"/>
<path d="M4500 2408 l0 -198 25 0 25 0 0 100 c0 112 14 140 68 140 51 0 62
-24 62 -138 l0 -102 26 0 26 0 -4 114 c-3 106 -5 116 -28 141 -22 23 -31 26
-75 23 -27 -3 -57 -7 -65 -11 -13 -6 -15 4 -15 59 0 63 -2 67 -22 69 l-23 2 0
-199z"/>
<path d="M5845 2601 c-3 -2 -5 -81 -5 -175 0 -197 6 -216 66 -216 26 0 34 4
34 18 0 9 -10 22 -22 27 -22 10 -23 14 -26 182 -2 165 -3 172 -23 170 -11 -1
-22 -3 -24 -6z"/>
<path d="M7435 2601 c-3 -2 -5 -91 -5 -198 l0 -193 25 0 c16 0 25 6 25 16 0
14 2 14 22 0 27 -19 94 -20 126 -2 82 45 83 212 2 256 -31 17 -96 15 -125 -4
l-25 -16 0 73 c0 67 -2 73 -20 73 -12 0 -23 -2 -25 -5z m180 -176 c20 -19 25
-34 25 -72 -1 -51 -12 -73 -47 -91 -34 -18 -52 -14 -84 17 -31 32 -37 66 -18
118 18 54 84 69 124 28z"/>
<path d="M7750 2432 c0 -203 6 -222 66 -222 27 0 34 4 34 19 0 13 -8 21 -22
23 -23 3 -23 6 -28 178 -5 172 -5 175 -27 177 l-23 3 0 -178z"/>
<path d="M1708 2590 c-83 -25 -138 -102 -138 -190 0 -67 39 -140 91 -169 54
-31 135 -31 184 -2 l35 20 0 -20 c0 -15 5 -20 23 -17 21 3 22 8 25 101 l3 97
-86 0 c-78 0 -85 -2 -85 -20 0 -18 7 -20 59 -20 l60 0 -9 -29 c-20 -71 -60
-98 -131 -88 -163 22 -155 297 8 297 49 0 75 -11 114 -47 23 -21 27 -22 39 -8
11 13 10 19 -5 36 -46 50 -131 77 -187 59z"/>
<path d="M2744 2585 c-8 -21 2 -45 19 -45 8 0 20 7 27 15 10 12 10 18 0 30 -7
8 -19 15 -27 15 -7 0 -16 -7 -19 -15z"/>
<path d="M7314 2586 c-10 -26 4 -48 28 -44 17 2 23 10 23 28 0 18 -6 26 -23
28 -13 2 -25 -3 -28 -12z"/>
<path d="M3174 2486 c-34 -15 -44 -33 -44 -75 0 -35 21 -54 85 -79 52 -20 72
-55 43 -73 -23 -15 -75 -10 -101 11 -22 17 -26 18 -37 5 -30 -36 65 -84 129
-65 49 14 71 38 71 77 0 41 -25 68 -79 84 -22 7 -49 21 -58 31 -17 19 -17 21
6 39 30 24 42 24 75 -2 21 -16 30 -18 41 -9 44 37 -67 85 -131 56z"/>
<path d="M5153 2489 c-95 -28 -123 -171 -48 -246 29 -29 39 -33 88 -33 45 0
61 5 84 24 27 23 27 26 11 42 -17 17 -18 17 -38 -1 -12 -11 -36 -19 -57 -19
-79 0 -113 105 -54 165 34 34 68 37 104 9 24 -19 57 -18 57 2 0 15 -52 58 -71
58 -9 0 -23 2 -31 4 -7 2 -27 0 -45 -5z"/>
<path d="M6065 2493 c-61 -16 -95 -67 -95 -143 0 -89 48 -140 133 -140 161 0
173 257 12 283 -16 3 -39 3 -50 0z m86 -72 c23 -23 29 -38 29 -71 0 -75 -73
-123 -127 -85 -30 21 -44 75 -32 120 19 67 81 84 130 36z"/>
<path d="M6525 2480 c-47 -24 -45 -24 -45 -5 0 8 -9 15 -20 15 -19 0 -20 -7
-20 -195 l0 -195 25 0 c24 0 25 2 25 71 l0 70 22 -15 c28 -20 90 -20 127 -1
37 19 61 71 61 132 0 107 -86 168 -175 123z m100 -55 c45 -44 29 -143 -26
-166 -37 -15 -82 2 -98 37 -33 72 4 154 69 154 19 0 40 -9 55 -25z"/>
<path d="M6845 2489 c-61 -17 -95 -67 -95 -140 0 -83 53 -139 131 -139 42 0
55 5 86 33 31 29 37 41 41 89 9 113 -65 184 -163 157z m90 -64 c20 -19 25 -34
25 -74 0 -43 -4 -53 -31 -75 -40 -34 -64 -33 -100 3 -23 24 -29 38 -29 74 0
85 80 128 135 72z"/>
<path d="M7105 2484 c-37 -19 -45 -31 -45 -70 0 -38 20 -57 84 -81 60 -22 80
-48 52 -69 -28 -20 -76 -17 -101 6 -21 20 -22 20 -39 1 -16 -18 -16 -20 14
-41 23 -16 46 -22 83 -22 45 0 55 4 79 31 15 17 28 40 28 51 0 29 -40 65 -92
84 -25 9 -52 24 -59 33 -11 13 -10 18 10 34 30 25 56 24 82 -2 19 -19 23 -20
36 -6 19 19 9 35 -33 53 -43 18 -62 18 -99 -2z"/>
<path d="M2000 2350 l0 -140 25 0 c25 0 25 1 25 88 0 102 13 135 55 142 21 4
31 12 33 28 3 18 -1 22 -24 22 -15 0 -38 -10 -51 -22 l-23 -21 0 21 c0 15 -6
22 -20 22 -19 0 -20 -7 -20 -140z"/>
<path d="M2206 2469 c-24 -19 -26 -23 -13 -37 13 -13 18 -13 38 2 33 23 75 20
93 -6 28 -39 21 -48 -37 -48 -50 0 -90 -16 -109 -44 -15 -21 -8 -74 13 -100
17 -22 29 -26 69 -26 30 0 52 5 60 15 7 8 16 15 21 15 5 0 9 -7 9 -15 0 -9 9
-15 21 -15 20 0 21 4 17 116 -3 113 -4 116 -31 140 -38 32 -112 34 -151 3z
m134 -154 c0 -33 -33 -65 -68 -65 -33 0 -52 16 -52 45 0 33 20 45 72 45 45 0
48 -2 48 -25z"/>
<path d="M2490 2462 c-15 -16 -34 -47 -41 -70 -16 -53 0 -113 41 -154 24 -24
36 -28 83 -28 45 0 61 5 87 26 26 23 29 29 18 40 -11 12 -20 10 -55 -7 -51
-25 -88 -17 -114 25 -27 42 -20 103 16 133 32 28 64 29 98 3 27 -21 57 -18 57
6 0 25 -61 54 -113 54 -40 0 -54 -5 -77 -28z"/>
<path d="M2740 2350 l0 -140 25 0 25 0 0 140 0 140 -25 0 -25 0 0 -140z"/>
<path d="M2886 2469 c-24 -19 -26 -23 -13 -37 13 -13 18 -13 38 2 33 23 75 20
93 -6 27 -37 20 -48 -28 -48 -84 0 -126 -30 -126 -89 0 -51 32 -81 86 -81 22
0 50 7 62 16 20 14 22 14 22 0 0 -10 9 -16 25 -16 25 0 25 1 25 88 0 151 -23
192 -111 192 -32 0 -55 -7 -73 -21z m130 -161 c-8 -42 -32 -60 -76 -56 -31 3
-35 7 -38 33 -5 38 19 55 76 55 l45 0 -7 -32z"/>
<path d="M3530 2295 l0 -195 25 0 c24 0 25 2 25 66 0 59 2 65 18 58 9 -4 38
-9 65 -12 43 -4 50 -1 81 30 60 60 61 155 1 215 -27 27 -41 33 -74 33 -23 0
-55 -7 -71 -15 -27 -14 -30 -14 -30 0 0 8 -9 15 -20 15 -19 0 -20 -7 -20 -195z
m181 126 c41 -42 41 -101 -1 -143 -26 -25 -36 -29 -63 -24 -46 9 -67 39 -67
98 0 90 72 128 131 69z"/>
<path d="M3898 2474 c-38 -20 -58 -63 -58 -124 0 -90 48 -140 134 -140 38 0
52 6 82 33 31 28 37 41 42 85 9 97 -42 162 -126 162 -26 -1 -59 -7 -74 -16z
m105 -35 c65 -30 62 -152 -4 -179 -54 -23 -105 10 -109 70 -4 52 1 72 25 95
26 27 51 31 88 14z"/>
<path d="M4160 2350 l0 -140 24 0 c24 0 24 2 28 100 3 107 12 126 58 133 16 3
26 11 28 25 3 18 -2 22 -24 22 -15 0 -39 -10 -52 -22 l-25 -23 6 23 c4 18 1
22 -19 22 l-24 0 0 -140z"/>
<path d="M4826 2469 c-24 -19 -26 -23 -13 -36 13 -13 18 -13 40 2 35 23 79 16
94 -14 16 -33 9 -41 -38 -41 -92 0 -141 -48 -118 -117 19 -59 102 -76 155 -32
11 9 14 8 14 -5 0 -10 8 -16 23 -16 22 0 22 1 17 121 -5 112 -7 122 -29 140
-33 27 -110 26 -145 -2z m129 -156 c-10 -42 -34 -63 -72 -63 -26 0 -36 6 -45
25 -18 39 12 65 75 65 49 0 49 0 42 -27z"/>
<path d="M5393 2456 c-33 -30 -37 -39 -41 -94 -5 -68 17 -118 60 -140 48 -24
119 -19 155 12 23 20 25 26 14 39 -11 14 -16 14 -44 -4 -18 -10 -45 -19 -60
-19 -33 0 -77 40 -77 70 0 19 6 20 100 20 110 0 107 -2 89 64 -17 61 -49 86
-109 86 -43 0 -55 -5 -87 -34z m129 -23 c10 -9 18 -24 18 -35 0 -16 -9 -18
-70 -18 -38 0 -70 4 -70 9 0 4 9 20 21 35 24 31 72 35 101 9z"/>
<path d="M5660 2350 l0 -140 24 0 c24 0 24 2 28 100 3 107 14 132 60 135 15 1
24 9 26 23 3 18 -2 22 -26 22 -16 0 -35 -7 -42 -15 -7 -8 -16 -15 -21 -15 -5
0 -6 7 -3 15 5 11 -1 15 -20 15 l-26 0 0 -140z"/>
<path d="M7317 2353 c2 -131 3 -138 23 -141 19 -3 20 1 20 137 0 140 0 141
-22 141 -23 0 -23 -1 -21 -137z"/>
<path d="M7915 2457 c-20 -20 -36 -48 -40 -70 -11 -57 3 -107 40 -144 29 -29
39 -33 87 -33 35 0 64 7 86 20 36 22 39 32 17 50 -12 10 -20 8 -41 -9 -15 -12
-39 -21 -55 -21 -32 0 -74 34 -84 68 -6 22 -5 22 94 22 l101 0 0 25 c0 38 -25
90 -51 109 -14 9 -43 16 -72 16 -42 0 -54 -5 -82 -33z m134 -33 c12 -15 21
-31 21 -35 0 -5 -31 -9 -70 -9 -77 0 -88 12 -50 50 29 29 74 26 99 -6z"/>
<path d="M7020 2005 c0 -3 -1 -92 -1 -197 0 -187 1 -193 20 -196 14 -2 21 2
21 13 0 14 3 14 30 0 99 -51 202 34 184 152 -14 94 -106 149 -182 109 l-32
-17 0 71 c0 63 -2 70 -20 70 -11 0 -20 -2 -20 -5z m180 -179 c42 -46 27 -140
-27 -165 -65 -30 -129 43 -109 124 16 65 92 87 136 41z"/>
<path d="M7462 1824 c3 -170 5 -187 22 -200 11 -8 35 -14 53 -14 26 0 33 4 33
20 0 13 -7 20 -18 20 -38 0 -42 18 -42 192 l0 168 -26 0 -25 0 3 -186z"/>
<path d="M7622 1998 c-17 -17 -15 -45 4 -52 19 -7 44 10 44 30 0 20 -34 36
-48 22z"/>
<path d="M8060 1934 l0 -75 -26 20 c-50 40 -139 19 -169 -39 -20 -39 -19 -134
1 -170 34 -56 105 -76 164 -45 27 14 30 14 30 0 0 -9 9 -15 25 -15 l25 0 0
200 0 200 -25 0 c-24 0 -25 -2 -25 -76z m-30 -102 c16 -13 24 -32 27 -68 7
-66 -21 -104 -76 -104 -53 0 -84 35 -84 95 0 81 75 124 133 77z"/>
<path d="M8634 1997 c-3 -9 -3 -42 -1 -75 l5 -61 -31 20 c-111 67 -228 -64
-173 -194 20 -47 49 -69 101 -75 37 -4 52 0 76 17 l29 22 0 -21 c0 -16 5 -21
21 -18 20 3 20 9 21 198 1 192 0 195 -21 198 -12 2 -24 -3 -27 -11z m-7 -195
c29 -70 -7 -142 -71 -142 -45 0 -75 27 -83 72 -17 112 112 171 154 70z"/>
<path d="M7334 1985 c-4 -9 0 -23 8 -31 20 -20 50 -7 46 20 -4 26 -45 35 -54
11z"/>
<path d="M7736 1984 c-9 -22 17 -49 39 -40 10 3 15 15 13 28 -4 29 -42 37 -52
12z"/>
<path d="M3800 1964 c-12 -4 -15 -14 -12 -39 4 -33 3 -35 -28 -35 -27 0 -31
-3 -28 -22 2 -16 10 -23 26 -23 22 0 23 -3 25 -98 2 -91 4 -100 26 -118 35
-28 95 -23 99 9 3 20 0 22 -21 17 -44 -11 -58 16 -55 109 l3 81 35 0 c28 1 36
5 38 23 3 20 -1 22 -37 22 l-41 0 0 40 c0 22 -3 39 -7 39 -5 -1 -15 -3 -23 -5z"/>
<path d="M1443 1885 c-96 -41 -98 -213 -3 -263 40 -21 117 -10 148 21 25 26
25 27 8 40 -17 12 -22 11 -38 -5 -31 -31 -84 -27 -115 8 -33 36 -32 106 2 139
30 31 77 33 105 5 18 -18 23 -19 40 -7 19 13 19 14 -1 36 -39 42 -90 51 -146
26z"/>
<path d="M1712 1880 c-82 -50 -82 -200 0 -250 20 -12 51 -20 77 -20 37 0 49 6
82 39 36 36 39 42 39 97 0 41 -6 69 -20 91 -37 62 -116 81 -178 43z m132 -63
c38 -52 19 -137 -36 -156 -58 -21 -108 23 -108 95 0 27 7 51 21 68 29 37 92
34 123 -7z"/>
<path d="M2048 1885 c-16 -9 -28 -11 -28 -5 0 5 -11 10 -25 10 l-25 0 0 -140
0 -140 25 0 c25 0 25 1 25 90 0 49 5 101 12 115 13 28 45 40 83 31 32 -8 47
-63 44 -159 -2 -67 -1 -72 19 -75 22 -3 22 -1 22 112 0 105 -2 117 -23 141
-28 33 -90 42 -129 20z"/>
<path d="M2496 1879 c-21 -17 -26 -18 -26 -5 0 10 -9 16 -22 16 -23 0 -23 -1
-21 -137 2 -128 3 -138 21 -141 18 -3 20 5 24 91 4 107 22 147 63 147 20 0 25
5 25 25 0 32 -27 33 -64 4z"/>
<path d="M2680 1893 c-29 -10 -70 -56 -81 -91 -13 -40 -5 -103 18 -138 33 -51
109 -68 177 -40 41 17 52 32 36 51 -10 12 -17 11 -50 -6 -64 -34 -114 -12
-134 58 -7 21 -5 22 96 21 l103 0 -3 29 c-11 89 -86 144 -162 116z m93 -65
c30 -36 22 -43 -53 -43 -72 0 -77 3 -59 36 22 42 79 45 112 7z"/>
<path d="M2919 1871 c-16 -16 -29 -39 -29 -50 0 -31 40 -69 95 -88 54 -20 70
-47 39 -70 -26 -19 -67 -16 -97 7 -22 18 -26 18 -38 4 -29 -35 67 -77 135 -60
36 9 66 45 66 79 0 36 -33 66 -97 87 -50 17 -64 39 -43 65 17 21 53 19 83 -5
23 -18 26 -18 38 -4 11 14 9 20 -14 40 -41 35 -100 33 -138 -5z"/>
<path d="M3223 1881 c-27 -17 -33 -18 -33 -6 0 8 -9 15 -20 15 -19 0 -20 -7
-20 -190 l0 -190 25 0 c24 0 25 2 25 64 l0 64 31 -15 c38 -19 102 -12 131 14
63 55 62 181 0 237 -32 28 -100 31 -139 7z m115 -57 c45 -51 20 -152 -43 -168
-29 -7 -79 15 -89 39 -11 29 -6 109 8 127 17 23 56 38 81 31 11 -2 30 -16 43
-29z"/>
<path d="M3523 1880 c-43 -26 -63 -68 -63 -130 0 -59 20 -100 60 -124 51 -30
143 -16 179 28 10 12 9 16 -5 24 -13 7 -26 4 -48 -9 -17 -10 -41 -19 -53 -19
-32 0 -83 47 -83 76 0 25 0 25 98 23 l97 -1 -3 32 c-8 98 -99 149 -179 100z
m110 -48 c9 -8 17 -22 17 -31 0 -13 -13 -16 -70 -16 -71 0 -82 7 -57 37 31 39
72 43 110 10z"/>
<path d="M4010 1878 c-50 -33 -72 -82 -66 -140 9 -81 56 -128 130 -128 80 0
130 57 130 146 0 80 -43 131 -121 141 -29 4 -46 -1 -73 -19z m119 -52 c47 -49
32 -145 -26 -167 -68 -25 -129 45 -109 126 16 64 92 87 135 41z"/>
<path d="M4904 1878 c-23 -18 -27 -19 -21 -5 5 13 1 17 -18 17 l-25 0 0 -140
0 -140 25 0 c25 0 25 1 25 90 0 101 12 138 49 147 14 3 29 11 33 17 27 39 -22
49 -68 14z"/>
<path d="M5073 1880 c-48 -29 -66 -72 -61 -142 6 -79 42 -118 115 -125 71 -7
153 38 120 65 -10 9 -23 7 -52 -8 -22 -11 -47 -20 -56 -20 -29 0 -79 49 -79
76 0 25 0 25 98 23 l97 -1 -3 32 c-8 98 -99 149 -179 100z m101 -41 c14 -11
26 -28 26 -37 0 -14 -11 -17 -70 -17 -39 0 -70 1 -70 2 0 15 27 53 44 61 31
15 40 14 70 -9z"/>
<path d="M5355 1888 c-43 -25 -57 -68 -35 -108 6 -11 37 -29 70 -41 66 -24 86
-52 54 -76 -26 -19 -67 -16 -97 7 -23 18 -26 18 -38 4 -11 -14 -9 -20 14 -40
43 -37 119 -34 158 5 54 55 36 99 -56 134 -62 24 -77 45 -55 72 18 21 60 18
85 -5 20 -19 23 -19 36 -4 12 14 10 19 -14 40 -31 26 -87 32 -122 12z"/>
<path d="M5654 1891 c-12 -5 -25 -14 -29 -20 -9 -16 -25 -13 -25 4 0 8 -9 15
-20 15 -19 0 -20 -7 -20 -190 l0 -190 28 0 27 0 -3 65 c-4 68 0 74 32 50 36
-27 92 -19 133 19 33 30 37 39 41 93 4 64 -9 102 -46 136 -24 22 -87 31 -118
18z m95 -67 c15 -19 21 -41 21 -74 0 -42 -4 -52 -32 -75 -37 -32 -71 -28 -107
12 -20 23 -22 34 -18 77 5 59 32 86 82 86 24 0 39 -7 54 -26z"/>
<path d="M5941 1882 c-65 -32 -90 -125 -54 -199 21 -46 67 -73 122 -73 37 0
49 6 82 39 36 36 39 42 39 97 0 122 -91 187 -189 136z m116 -54 c63 -70 12
-193 -72 -172 -64 16 -89 121 -40 169 32 33 84 34 112 3z"/>
<path d="M6268 1884 c-16 -8 -28 -10 -28 -4 0 5 -11 10 -25 10 l-25 0 0 -140
0 -140 24 0 c24 0 24 2 28 100 2 84 6 103 23 119 35 33 62 35 90 7 23 -23 25
-32 25 -126 l0 -100 25 0 c25 0 25 0 25 93 0 50 -5 109 -11 129 -16 61 -89 86
-151 52z"/>
<path d="M6528 1885 c-32 -18 -45 -56 -32 -94 7 -20 24 -32 71 -50 69 -27 82
-44 56 -73 -21 -24 -74 -19 -105 8 -17 16 -20 16 -34 2 -14 -14 -12 -18 17
-43 29 -24 39 -27 87 -23 58 5 86 25 97 69 9 36 -27 75 -90 97 -52 19 -67 41
-45 67 17 21 53 19 83 -5 22 -18 26 -18 38 -4 34 41 -85 82 -143 49z"/>
<path d="M6773 1880 c-37 -22 -40 -32 -17 -51 10 -8 18 -9 22 -2 8 12 47 33
61 33 17 0 51 -38 51 -57 0 -15 -10 -19 -52 -21 -82 -5 -117 -32 -118 -90 0
-67 91 -109 146 -67 25 19 34 19 34 0 0 -8 9 -15 20 -15 19 0 20 7 20 99 0 54
-5 112 -11 130 -20 58 -96 78 -156 41z m110 -169 c-1 -37 -26 -60 -63 -61 -32
0 -50 17 -50 46 0 27 16 41 55 47 53 8 60 4 58 -32z"/>
<path d="M8214 1886 c-41 -18 -50 -34 -31 -53 14 -14 18 -14 43 6 14 11 34 21
44 21 21 0 47 -28 52 -55 2 -17 -3 -20 -37 -23 -22 -1 -50 -5 -63 -7 -62 -14
-84 -94 -37 -140 28 -29 89 -34 120 -11 17 12 21 12 31 -2 6 -8 17 -13 25 -10
11 4 13 28 9 123 -5 113 -6 118 -33 141 -32 27 -75 31 -123 10z m116 -165 c0
-31 -39 -71 -69 -71 -33 0 -51 16 -51 46 0 29 18 42 65 46 49 4 55 2 55 -21z"/>
<path d="M4393 1878 c2 -7 28 -71 57 -142 l51 -130 -19 -25 c-10 -14 -28 -27
-39 -29 -25 -4 -38 -41 -17 -49 21 -8 71 15 87 41 8 11 33 71 55 131 22 61 50
134 61 163 l21 52 -26 0 c-27 0 -35 -14 -80 -140 -18 -52 -24 -61 -30 -45 -61
160 -72 180 -99 183 -20 3 -26 0 -22 -10z"/>
<path d="M7340 1749 c0 -140 0 -140 23 -137 21 3 22 6 25 141 l3 137 -26 0
-25 0 0 -141z"/>
<path d="M7610 1750 l0 -140 25 0 25 0 0 140 0 140 -25 0 -25 0 0 -140z"/>
<path d="M7740 1750 l0 -140 25 0 25 0 0 140 0 140 -25 0 -25 0 0 -140z"/>
<path d="M4837 1206 c-59 -22 -103 -62 -133 -121 -24 -49 -26 -64 -22 -130 6
-90 47 -179 117 -258 55 -60 188 -169 265 -216 l56 -33 37 22 c73 43 226 166
275 220 168 187 169 420 3 500 -117 57 -260 5 -302 -108 -8 -22 -10 -21 -40
21 -38 55 -86 92 -138 106 -51 14 -71 13 -118 -3z m183 -41 c23 -16 52 -48 66
-71 23 -40 50 -61 62 -49 3 3 0 5 -7 5 -16 0 20 68 51 97 76 71 207 70 288 -3
75 -68 89 -184 36 -299 -33 -72 -85 -147 -97 -139 -5 3 -8 0 -7 -8 2 -7 -3
-12 -10 -10 -8 1 -11 -1 -8 -6 10 -17 -159 -156 -178 -145 -6 3 -8 2 -3 -2 8
-9 -70 -65 -92 -65 -8 0 -34 12 -59 26 -34 20 -41 29 -31 36 11 8 10 9 -3 5
-39 -13 -277 205 -263 240 2 8 0 11 -5 8 -16 -10 -62 104 -67 167 -10 99 40
191 122 230 60 28 150 21 205 -17z"/>
</g>
</svg>
